<svg width="44" height="44" viewBox="0 0 44 44" fill="none" xmlns="http://www.w3.org/2000/svg">
<path fill-rule="evenodd" clip-rule="evenodd" d="M18.5861 22.7301C20.4353 20.9906 21.5681 19.5084 22.1908 18.2843C22.8786 16.9322 22.9138 15.9623 22.7035 15.296C22.4933 14.6299 21.9804 14.0852 21.2021 13.6974C20.4178 13.3066 19.4164 13.1068 18.3851 13.13C17.354 13.1531 16.3616 13.3978 15.5941 13.8237C14.8323 14.2464 14.3421 14.8145 14.16 15.4903C13.978 16.1659 14.0544 17.1331 14.7983 18.4522C15.4719 19.6466 16.6657 21.0758 18.5861 22.7301ZM17.0082 24.008C15.6793 24.9995 14.8941 25.6019 14.3431 26.0247C13.7955 26.4447 13.4792 26.6874 13.0904 26.9582C12.5448 27.3381 11.8867 27.7504 10.2508 28.7752C9.33331 29.35 8.10826 30.1174 6.423 31.1799L7.48963 32.8718C9.11051 31.8499 10.3125 31.0968 11.2288 30.5227C12.9304 29.4567 13.6473 29.0075 14.2333 28.5994C14.6368 28.3184 14.9942 28.0448 15.591 27.5878C16.2325 27.0966 17.1506 26.3936 18.6998 25.242C22.3464 27.1249 26.1844 27.4543 29.4916 27.0259C32.9506 26.5779 35.9232 25.2884 37.577 23.9644L36.3271 22.4031C35.015 23.4535 32.4081 24.6314 29.2347 25.0425C26.4675 25.4009 23.342 25.1665 20.3443 23.816C22.0856 22.1232 23.265 20.5837 23.9734 19.1911C24.821 17.5249 25.0238 16.003 24.6108 14.6941C24.1976 13.385 23.2258 12.4712 22.094 11.9073C20.9682 11.3464 19.634 11.1014 18.3402 11.1305C17.0463 11.1596 15.7242 11.4642 14.6237 12.0749C13.5174 12.6887 12.586 13.6445 12.2289 14.97C11.8717 16.2957 12.1386 17.8073 13.0563 19.4346C13.8414 20.8268 15.1262 22.3505 17.0082 24.008Z" fill="#424242"/>
</svg>
