<svg width="177" height="46" viewBox="0 0 177 46" fill="none" xmlns="http://www.w3.org/2000/svg">
<path d="M10.2858 36.1762C18.9914 29.2372 14.6684 32.8503 21.1093 26.8766M21.1093 26.8766C37.6514 8.43865 0.475954 13.368 21.1093 26.8766ZM21.1093 26.8766C28.7356 30.1733 36.6679 26.6959 39.3839 23.9799" stroke="#F3E04B" stroke-width="2"/>
<path d="M88.2388 20.0031C88.173 20.0125 88.1025 20.0125 88.0272 20.0031C87.9614 19.9841 87.8956 19.9511 87.8298 19.9038C87.7545 19.8282 87.7028 19.7714 87.6746 19.7336C87.6464 19.6864 87.637 19.6155 87.6464 19.5209C87.6652 19.4264 87.6981 19.2799 87.7451 19.0814C87.7921 18.9301 87.8486 18.7221 87.9144 18.4574C87.9802 18.1833 88.0507 17.9139 88.126 17.6492C88.1542 17.4979 88.1918 17.342 88.2388 17.1813C88.2952 17.0205 88.3517 16.874 88.4081 16.7417C88.4645 16.5999 88.5068 16.4912 88.535 16.4155C88.6103 16.1508 88.6808 15.9192 88.7466 15.7207C88.8219 15.5222 88.9112 15.2953 89.0146 15.0401C89.1181 14.7754 89.245 14.4256 89.3955 13.9908C89.6024 13.4236 89.7575 12.9935 89.861 12.7004C89.9738 12.3979 90.0538 12.1805 90.1008 12.0481C90.1572 11.9063 90.1948 11.7976 90.2136 11.722C90.2136 11.6464 90.2324 11.5896 90.27 11.5518C90.3171 11.514 90.3735 11.4951 90.4393 11.4951C90.571 11.4951 90.6744 11.5613 90.7496 11.6936C90.8343 11.8165 90.886 11.9678 90.9048 12.1474C90.9236 12.3176 90.8954 12.4783 90.8202 12.6295C90.6697 12.9698 90.5098 13.3763 90.3406 13.849C90.1713 14.3122 90.0067 14.7707 89.8469 15.2244C89.687 15.6687 89.5365 16.0469 89.3955 16.3588C89.3955 16.3966 89.3814 16.4628 89.3532 16.5573C89.325 16.6519 89.292 16.737 89.2544 16.8126C89.2168 16.8882 89.1792 16.9591 89.1416 17.0253C89.1134 17.0914 89.0993 17.1245 89.0993 17.1245C89.0993 17.1623 89.0852 17.2332 89.0569 17.3372C89.0287 17.4412 88.9911 17.5688 88.9441 17.7201C88.9065 17.8335 88.8595 17.9801 88.803 18.1597C88.756 18.3393 88.7231 18.4905 88.7043 18.6134C88.7513 18.5283 88.8501 18.4007 89.0005 18.2306C89.151 18.0604 89.292 17.9139 89.4237 17.791C89.5742 17.6586 89.7434 17.5121 89.9315 17.3514C90.1196 17.1907 90.27 17.0725 90.3829 16.9969C90.4957 16.9213 90.5945 16.8551 90.6791 16.7984C90.7731 16.7322 90.8202 16.6991 90.8202 16.6991C90.8202 16.6613 90.8343 16.6424 90.8625 16.6424C90.9001 16.633 90.9377 16.6282 90.9753 16.6282C91.0129 16.6282 91.0317 16.6235 91.0317 16.6141C91.0412 16.6046 91.0459 16.581 91.0459 16.5432C91.0459 16.4959 91.0976 16.4534 91.201 16.4155C91.3139 16.3777 91.4408 16.3494 91.5819 16.3305C91.7323 16.3021 91.8546 16.2879 91.9486 16.2879C92.0615 16.2879 92.1508 16.3116 92.2166 16.3588C92.2825 16.4061 92.3671 16.5101 92.4705 16.6708C92.5834 16.822 92.6539 17.0064 92.6821 17.2238C92.7197 17.4318 92.7009 17.6492 92.6257 17.8761C92.6257 17.9517 92.6116 18.0604 92.5834 18.2022C92.5646 18.3346 92.5552 18.4764 92.5552 18.6276L92.4705 19.0814H92.6962C92.7715 19.0814 92.842 19.0955 92.9078 19.1239C92.9736 19.1428 93.0065 19.1523 93.0065 19.1523C93.0442 19.1901 93.0818 19.2279 93.1194 19.2657C93.157 19.2941 93.1946 19.3082 93.2322 19.3082C93.3451 19.3082 93.3874 19.3555 93.3592 19.45C93.331 19.5351 93.2605 19.6155 93.1476 19.6911C92.9219 19.8423 92.715 19.918 92.527 19.918C92.3483 19.918 92.1837 19.8423 92.0333 19.6911C91.8828 19.5304 91.7888 19.3508 91.7511 19.1523C91.7135 18.9537 91.7323 18.7032 91.8076 18.4007C91.8452 17.9848 91.864 17.6823 91.864 17.4932C91.8734 17.2947 91.8264 17.1954 91.7229 17.1954C91.6289 17.1954 91.4643 17.2616 91.2292 17.394C90.9941 17.5168 90.7308 17.687 90.4393 17.9044C90.1478 18.1219 89.861 18.3629 89.5789 18.6276C89.2967 18.8923 89.0617 19.1664 88.8736 19.45C88.7607 19.5918 88.6526 19.7195 88.5491 19.8329C88.4457 19.9369 88.3423 19.9936 88.2388 20.0031Z" fill="#424242"/>
<path d="M94.3729 20.2583C94.3353 20.1827 94.2883 20.1259 94.2319 20.0881C94.1754 20.0409 94.1472 19.9983 94.1472 19.9605C94.1472 19.9227 94.1425 19.8849 94.1331 19.8471C94.1331 19.7998 94.1143 19.7573 94.0767 19.7195C94.0297 19.6627 94.0344 19.5351 94.0908 19.3366C94.1472 19.1286 94.2413 18.8781 94.3729 18.5851C94.5046 18.2826 94.6597 17.9659 94.8384 17.635C94.9136 17.5594 94.9889 17.4601 95.0641 17.3372C95.1393 17.2143 95.1958 17.134 95.2334 17.0962C95.2334 17.0584 95.2475 17.0253 95.2757 16.9969C95.3039 16.9591 95.3368 16.9402 95.3744 16.9402V16.8551C95.3744 16.8078 95.4168 16.7275 95.5014 16.6141C95.5954 16.5006 95.7083 16.3777 95.8399 16.2454C95.9716 16.1036 96.1079 15.9712 96.249 15.8483C96.39 15.716 96.5076 15.6215 96.6016 15.5647C96.7991 15.4324 97.0013 15.352 97.2082 15.3237C97.4245 15.2953 97.6078 15.3426 97.7583 15.4655C97.7865 15.4938 97.8335 15.5411 97.8994 15.6073C97.9652 15.6735 98.0404 15.7491 98.125 15.8342C98.2191 15.9098 98.3131 15.9901 98.4072 16.0752L98.9291 16.5432L98.6752 17.2522C98.5529 17.6303 98.52 17.9611 98.5764 18.2447C98.6423 18.5283 98.7363 18.7741 98.8585 18.9821C98.9056 19.0861 98.9996 19.1853 99.1407 19.2799C99.2911 19.3744 99.4322 19.4311 99.5638 19.45C99.6391 19.4595 99.7096 19.4878 99.7754 19.5351C99.8412 19.5824 99.8742 19.658 99.8742 19.762C99.8742 19.8565 99.8553 19.9322 99.8177 19.9889C99.7801 20.0456 99.7143 20.0834 99.6203 20.1023C99.3099 20.1401 99.0184 20.0645 98.7457 19.8754C98.4824 19.6864 98.2379 19.3744 98.0122 18.9396C97.9746 18.8828 97.9229 18.7789 97.857 18.6276C97.8006 18.4669 97.7677 18.3629 97.7583 18.3156C97.7207 18.3629 97.6502 18.4527 97.5467 18.5851C97.4433 18.708 97.3633 18.7978 97.3069 18.8545C96.6392 19.5351 96.0609 19.9936 95.5719 20.2299C95.0923 20.4568 94.6927 20.4663 94.3729 20.2583ZM94.8807 19.4642C94.8807 19.5304 94.9795 19.5304 95.177 19.4642C95.3838 19.3886 95.6048 19.2562 95.8399 19.0672C96.1597 18.793 96.4794 18.4905 96.7991 18.1597C97.1282 17.8288 97.3915 17.5216 97.589 17.238L97.8994 16.7275C97.8053 16.5101 97.7019 16.3635 97.589 16.2879C97.4856 16.2028 97.3963 16.1603 97.321 16.1603C97.1988 16.1603 97.0154 16.2737 96.7709 16.5006C96.5358 16.7275 96.2819 17.03 96.0092 17.4081C95.7365 17.7863 95.4779 18.2022 95.2334 18.656C95.1393 18.845 95.0547 19.0294 94.9795 19.209C94.9136 19.3791 94.8807 19.4642 94.8807 19.4642Z" fill="#424242"/>
<path d="M101.87 20.315C101.776 20.3812 101.711 20.4143 101.673 20.4143C101.635 20.4048 101.565 20.3481 101.461 20.2441C101.283 20.074 101.156 19.7525 101.081 19.2799C101.015 18.7978 100.982 18.1219 100.982 17.2522C101.019 16.8646 101.038 16.5337 101.038 16.2596C101.048 15.9854 101.052 15.8294 101.052 15.7916C101.081 15.7538 101.137 15.7349 101.222 15.7349C101.316 15.7349 101.396 15.7538 101.461 15.7916C101.555 15.8389 101.617 15.9098 101.645 16.0043C101.682 16.0989 101.706 16.269 101.715 16.5148C101.725 16.7511 101.729 17.1151 101.729 17.6067C101.701 17.9848 101.687 18.3156 101.687 18.5992C101.687 18.8734 101.701 19.0294 101.729 19.0672C101.767 19.1334 101.809 19.1523 101.856 19.1239C101.913 19.0861 102.011 18.9963 102.153 18.8545C102.228 18.7505 102.322 18.6134 102.435 18.4433C102.548 18.2637 102.637 18.1219 102.703 18.0179C102.806 17.8855 102.9 17.7579 102.985 17.635C103.079 17.5121 103.145 17.4318 103.182 17.394C103.22 17.3183 103.267 17.2474 103.323 17.1813C103.38 17.1151 103.427 17.0489 103.464 16.9827C103.568 16.8031 103.676 16.6566 103.789 16.5432C103.902 16.4203 103.977 16.3588 104.015 16.3588C104.052 16.3872 104.085 16.3966 104.113 16.3872C104.151 16.3683 104.188 16.3588 104.226 16.3588C104.292 16.2926 104.381 16.2926 104.494 16.3588C104.532 16.3872 104.565 16.4203 104.593 16.4581C104.621 16.4864 104.635 16.5195 104.635 16.5573C104.635 16.6046 104.598 16.7039 104.522 16.8551C104.456 17.0064 104.377 17.1529 104.283 17.2947C104.198 17.427 104.132 17.5074 104.085 17.5358C104.085 17.5358 104.071 17.5499 104.043 17.5783C104.015 17.6067 103.982 17.6397 103.944 17.6776C103.925 17.7437 103.864 17.8619 103.761 18.032C103.657 18.1928 103.53 18.3771 103.38 18.5851C103.229 18.793 103.074 19.001 102.914 19.209C102.754 19.417 102.613 19.6013 102.491 19.762C102.397 19.8943 102.289 20.0125 102.167 20.1165C102.044 20.211 101.946 20.2772 101.87 20.315Z" fill="#424242"/>
<path d="M106.456 20.8113C106.042 20.8113 105.703 20.6553 105.44 20.3434C105.177 20.022 105.05 19.6249 105.059 19.1523C105.078 18.8119 105.144 18.448 105.257 18.0604C105.379 17.6634 105.539 17.2852 105.736 16.926C105.934 16.5573 106.15 16.2359 106.385 15.9618C106.62 15.6876 106.865 15.4938 107.119 15.3804C107.213 15.3331 107.311 15.2953 107.415 15.267C107.528 15.2386 107.64 15.2244 107.753 15.2244C107.857 15.2244 107.965 15.2433 108.078 15.2811C108.191 15.3095 108.285 15.3426 108.36 15.3804C108.52 15.4466 108.642 15.5269 108.727 15.6215C108.811 15.716 108.886 15.8625 108.952 16.061C108.98 16.2407 108.995 16.3683 108.995 16.4439C108.995 16.5195 108.971 16.633 108.924 16.7842C108.811 17.1245 108.665 17.4176 108.487 17.6634C108.308 17.9092 108.068 18.1171 107.767 18.2873C107.692 18.3346 107.603 18.3724 107.499 18.4007C107.405 18.4196 107.307 18.4291 107.203 18.4291C107.015 18.4291 106.832 18.396 106.653 18.3298C106.484 18.2542 106.347 18.1455 106.244 18.0037L106.145 17.8902L106.103 18.0037C106.009 18.2589 105.934 18.4953 105.877 18.7127C105.83 18.9301 105.807 19.1286 105.807 19.3082C105.807 19.4217 105.816 19.5304 105.835 19.6344C105.863 19.7384 105.901 19.8282 105.948 19.9038C105.985 19.9605 106.047 20.0031 106.131 20.0314C106.225 20.0503 106.324 20.0598 106.427 20.0598C106.493 20.0598 106.559 20.0598 106.625 20.0598C106.7 20.0503 106.771 20.0314 106.836 20.0031C106.996 19.9463 107.123 19.8849 107.217 19.8187C107.321 19.7525 107.424 19.6816 107.528 19.606L107.584 19.5777H107.57C107.683 19.5209 107.782 19.4642 107.866 19.4075C107.96 19.3508 108.007 19.3224 108.007 19.3224C108.045 19.3224 108.082 19.2988 108.12 19.2515C108.195 19.2137 108.289 19.2279 108.402 19.2941C108.524 19.3602 108.586 19.4453 108.586 19.5493C108.576 19.5966 108.534 19.6722 108.459 19.7762C108.383 19.8707 108.299 19.9605 108.205 20.0456C108.12 20.1307 108.05 20.1779 107.993 20.1874C107.984 20.1968 107.951 20.2158 107.894 20.2441C107.838 20.263 107.8 20.2819 107.782 20.3008H107.796C107.711 20.4143 107.626 20.471 107.542 20.471H107.429C107.391 20.5372 107.269 20.6128 107.062 20.6979C106.855 20.7735 106.653 20.8113 106.456 20.8113ZM107.09 17.6917C107.26 17.6917 107.405 17.6445 107.528 17.5499C107.659 17.4459 107.772 17.3325 107.866 17.2096C108.054 16.9544 108.162 16.7086 108.191 16.4723C108.228 16.2265 108.2 16.0563 108.106 15.9618C108.05 15.9334 107.998 15.9192 107.951 15.9192C107.913 15.9098 107.833 15.924 107.711 15.9618C107.626 15.9807 107.509 16.0516 107.358 16.1745C107.208 16.2974 107.057 16.4344 106.907 16.5857C106.766 16.737 106.658 16.8646 106.583 16.9686L106.399 17.2663C106.474 17.238 106.545 17.2238 106.611 17.2238C106.686 17.2143 106.728 17.2191 106.738 17.238C106.738 17.3231 106.752 17.4034 106.78 17.479C106.818 17.5452 106.86 17.5972 106.907 17.635C106.963 17.6728 107.024 17.6917 107.09 17.6917Z" fill="#424242"/>
<path d="M113.979 20.3008C113.866 20.3197 113.744 20.3008 113.613 20.2441C113.481 20.1874 113.363 20.107 113.26 20.0031C113.166 19.8991 113.105 19.7904 113.077 19.6769C113.039 19.4784 113.062 19.2326 113.147 18.9396C113.241 18.6371 113.373 18.3204 113.542 17.9895C113.721 17.6492 113.918 17.3231 114.134 17.0111C114.36 16.6991 114.591 16.4297 114.826 16.2028C115.07 15.9665 115.296 15.8058 115.503 15.7207C115.606 15.6546 115.686 15.612 115.743 15.5931C115.808 15.5647 115.874 15.56 115.94 15.5789C116.015 15.5978 116.123 15.6451 116.264 15.7207C116.396 15.7585 116.495 15.8011 116.561 15.8483C116.626 15.8956 116.711 15.9901 116.815 16.1319C116.89 16.2737 116.946 16.4155 116.984 16.5573C117.021 16.6991 117.054 16.8598 117.083 17.0395C117.158 17.2758 117.186 17.4318 117.167 17.5074C117.148 17.5736 117.12 17.6256 117.083 17.6634C117.007 17.7579 116.989 17.8052 117.026 17.8052C117.026 17.8052 117.021 17.8241 117.012 17.8619C117.012 17.8902 116.993 17.9375 116.956 18.0037C116.89 18.2117 116.838 18.4291 116.8 18.656C116.772 18.8734 116.777 19.053 116.815 19.1948C116.89 19.4028 117.026 19.5257 117.224 19.5635C117.421 19.6013 117.623 19.5162 117.83 19.3082C117.934 19.2326 118.032 19.1664 118.126 19.1097C118.22 19.0435 118.267 19.0483 118.267 19.1239C118.267 19.1239 118.282 19.1381 118.31 19.1664C118.338 19.1853 118.371 19.1948 118.409 19.1948C118.456 19.1948 118.484 19.2137 118.493 19.2515C118.512 19.2893 118.512 19.3413 118.493 19.4075C118.484 19.4642 118.456 19.5304 118.409 19.606C118.267 19.7478 118.197 19.8423 118.197 19.8896C118.197 19.8896 118.178 19.9085 118.14 19.9463C118.112 19.9747 118.061 20.022 117.985 20.0881C117.816 20.1921 117.6 20.2441 117.336 20.2441C117.083 20.2441 116.885 20.1921 116.744 20.0881C116.603 19.9841 116.471 19.8423 116.349 19.6627C116.236 19.4831 116.161 19.3271 116.123 19.1948L116.053 19.053L115.644 19.3224C115.54 19.4264 115.427 19.5257 115.305 19.6202C115.192 19.7147 115.117 19.7809 115.08 19.8187C115.051 19.8565 115.018 19.8896 114.981 19.918C114.953 19.9463 114.92 19.9605 114.882 19.9605C114.844 19.9605 114.812 19.9605 114.783 19.9605C114.755 19.9605 114.741 19.9605 114.741 19.9605C114.741 19.9983 114.694 20.0456 114.6 20.1023C114.515 20.159 114.412 20.2063 114.29 20.2441C114.177 20.2819 114.073 20.3008 113.979 20.3008ZM113.838 19.5351C113.895 19.5351 113.993 19.4926 114.134 19.4075C114.285 19.313 114.45 19.2043 114.628 19.0814C114.816 18.9585 114.981 18.8356 115.122 18.7127C115.272 18.5898 115.376 18.4953 115.432 18.4291C115.47 18.3913 115.531 18.3298 115.616 18.2447C115.7 18.1502 115.775 18.0699 115.841 18.0037C116.058 17.7579 116.208 17.4885 116.293 17.1954C116.377 16.8929 116.368 16.6566 116.264 16.4864C116.227 16.3825 116.18 16.3257 116.123 16.3163C116.067 16.3068 115.949 16.3399 115.771 16.4155C115.658 16.4817 115.517 16.6093 115.348 16.7984C115.188 16.978 115.014 17.1907 114.826 17.4365C114.647 17.6728 114.478 17.9186 114.318 18.1738C114.158 18.4291 114.026 18.6654 113.923 18.8828C113.819 19.1003 113.768 19.2704 113.768 19.3933C113.768 19.4311 113.777 19.4642 113.796 19.4926C113.824 19.5209 113.838 19.5351 113.838 19.5351Z" fill="#424242"/>
<path d="M122.984 20.1449C122.946 20.1449 122.89 20.1212 122.814 20.074C122.749 20.0172 122.697 19.97 122.659 19.9322C122.593 19.8565 122.551 19.7809 122.532 19.7053C122.523 19.6296 122.518 19.4595 122.518 19.1948C122.518 18.8923 122.579 18.5662 122.701 18.2164C122.824 17.8572 123.031 17.3561 123.322 16.7133L123.788 15.7207C123.825 15.6451 123.858 15.5884 123.886 15.5506C123.924 15.5128 123.957 15.4749 123.985 15.4371C124.023 15.4371 124.056 15.4371 124.084 15.4371C124.112 15.4371 124.126 15.4371 124.126 15.4371C124.201 15.4371 124.277 15.4844 124.352 15.5789C124.427 15.664 124.484 15.7585 124.521 15.8625C124.521 15.9854 124.502 16.113 124.465 16.2454C124.436 16.3777 124.324 16.5762 124.126 16.8409C124.06 16.9449 123.971 17.1198 123.858 17.3656C123.755 17.6114 123.684 17.8241 123.647 18.0037C123.637 18.0131 123.618 18.0557 123.59 18.1313C123.562 18.1975 123.529 18.2731 123.491 18.3582C123.463 18.4433 123.43 18.5236 123.393 18.5992L123.322 18.9112L124.267 17.9328C124.709 17.4885 125.067 17.1718 125.339 16.9827C125.612 16.7937 125.828 16.7133 125.988 16.7417C126.148 16.77 126.284 16.8977 126.397 17.1245C126.463 17.2285 126.51 17.3231 126.538 17.4081C126.576 17.4838 126.599 17.5877 126.609 17.7201C126.618 17.8524 126.609 18.051 126.581 18.3156V19.1948C126.722 19.157 126.834 19.1239 126.919 19.0955C127.004 19.0577 127.093 19.0199 127.187 18.9821C127.272 18.9443 127.37 18.9112 127.483 18.8828C127.596 18.845 127.737 18.8214 127.906 18.8119C127.897 18.9348 127.855 19.0672 127.78 19.209C127.704 19.3413 127.61 19.4689 127.497 19.5918C127.385 19.7147 127.258 19.814 127.117 19.8896C126.985 19.9652 126.853 20.0031 126.722 20.0031C126.599 20.0031 126.463 19.9416 126.313 19.8187C126.162 19.6958 126.054 19.5587 125.988 19.4075C125.95 19.3035 125.927 19.1901 125.918 19.0672C125.918 18.9443 125.918 18.7174 125.918 18.3865V17.8619C125.918 17.7106 125.871 17.6681 125.777 17.7343C125.692 17.791 125.621 17.843 125.565 17.8902C125.424 18.0131 125.273 18.1549 125.114 18.3156C124.963 18.4764 124.808 18.6418 124.648 18.8119C124.215 19.2657 123.853 19.6013 123.562 19.8187C123.28 20.0361 123.087 20.1449 122.984 20.1449Z" fill="#424242"/>
<path d="M128.812 20.315C128.737 20.2394 128.68 20.1449 128.643 20.0314C128.615 19.918 128.605 19.8045 128.615 19.6911C128.624 19.5777 128.647 19.4831 128.685 19.4075C128.685 19.3319 128.694 19.2752 128.713 19.2373C128.741 19.1901 128.751 19.1475 128.741 19.1097C128.732 19.0719 128.741 19.0057 128.77 18.9112C128.798 18.8167 128.826 18.7269 128.854 18.6418C128.92 18.4905 128.991 18.3109 129.066 18.1029C129.141 17.8855 129.212 17.6728 129.277 17.4649C129.343 17.2569 129.4 17.0773 129.447 16.926C129.494 16.7748 129.522 16.6802 129.531 16.6424C129.531 16.529 129.607 16.4675 129.757 16.4581C129.87 16.4203 129.955 16.4203 130.011 16.4581C130.067 16.4864 130.143 16.5762 130.237 16.7275C130.312 16.8031 130.34 16.9166 130.321 17.0678C130.303 17.2191 130.241 17.4081 130.138 17.635C130.1 17.7106 130.053 17.8193 129.997 17.9611C129.95 18.1029 129.917 18.2306 129.898 18.344C129.861 18.4196 129.814 18.5283 129.757 18.6701C129.71 18.8025 129.668 18.9301 129.63 19.053C129.611 19.1003 129.593 19.1712 129.574 19.2657C129.555 19.3508 129.531 19.4453 129.503 19.5493C129.475 19.6438 129.437 19.7289 129.39 19.8045C129.306 20.1921 129.226 20.419 129.151 20.4852C129.085 20.5513 128.972 20.4946 128.812 20.315ZM130.18 14.558C130.133 14.5107 130.091 14.4445 130.053 14.3595C130.016 14.2649 129.992 14.1798 129.983 14.1042C129.973 14.0191 129.983 13.9766 130.011 13.9766C130.086 13.9671 130.176 13.8868 130.279 13.7355C130.382 13.5843 130.425 13.4519 130.406 13.3385C130.406 13.3007 130.42 13.2676 130.448 13.2392C130.476 13.2014 130.509 13.1778 130.547 13.1683C130.66 13.0927 130.768 13.0833 130.871 13.14C130.984 13.1873 131.088 13.2865 131.182 13.4378C131.266 13.6174 131.29 13.7686 131.252 13.8915C131.215 14.005 131.111 14.1657 130.942 14.3736C130.801 14.5627 130.669 14.6667 130.547 14.6856C130.434 14.7045 130.312 14.662 130.18 14.558Z" fill="#424242"/>
<path d="M132.825 20.6128C132.553 20.6601 132.304 20.6459 132.078 20.5702C131.852 20.4852 131.669 20.3481 131.528 20.159C131.396 19.9605 131.33 19.71 131.33 19.4075C131.302 19.1239 131.335 18.7978 131.429 18.4291C131.523 18.051 131.659 17.6728 131.838 17.2947C132.026 16.9166 132.228 16.5904 132.445 16.3163C132.633 16.0894 132.821 15.8814 133.009 15.6924C133.197 15.5033 133.366 15.3757 133.517 15.3095C133.648 15.2528 133.77 15.2197 133.883 15.2102C134.006 15.1913 134.104 15.1819 134.18 15.1819C134.33 15.2197 134.49 15.2906 134.659 15.3946C134.838 15.4891 134.927 15.5931 134.927 15.7065C134.927 15.7065 134.937 15.7207 134.955 15.7491C134.984 15.768 134.998 15.7774 134.998 15.7774C135.054 15.7774 135.101 15.8389 135.139 15.9618C135.186 16.0847 135.214 16.2265 135.223 16.3872C135.233 16.5384 135.209 16.6661 135.153 16.77C135.115 16.9496 135.049 17.1056 134.955 17.238C134.861 17.3703 134.777 17.4365 134.701 17.4365C134.664 17.4365 134.626 17.4412 134.589 17.4507C134.56 17.4507 134.546 17.4743 134.546 17.5216C134.546 17.5688 134.518 17.5877 134.462 17.5783C134.415 17.5688 134.363 17.5405 134.307 17.4932C134.25 17.4365 134.208 17.3703 134.18 17.2947C134.18 17.2474 134.198 17.1671 134.236 17.0536C134.274 16.9402 134.311 16.7937 134.349 16.6141C134.405 16.3494 134.401 16.1792 134.335 16.1036C134.269 16.0185 134.142 16.0138 133.954 16.0894C133.719 16.2217 133.493 16.4061 133.277 16.6424C133.07 16.8787 132.877 17.186 132.698 17.5641C132.52 17.9328 132.36 18.396 132.219 18.9537C132.162 19.1712 132.139 19.3602 132.148 19.5209C132.167 19.6816 132.191 19.7667 132.219 19.7762C132.351 19.814 132.529 19.8234 132.755 19.8045C132.981 19.7762 133.145 19.7336 133.249 19.6769C133.399 19.6013 133.568 19.502 133.756 19.3791C133.944 19.2468 134.109 19.1286 134.25 19.0246C134.297 18.9963 134.354 18.949 134.419 18.8828C134.485 18.8167 134.556 18.7647 134.631 18.7269C134.706 18.6134 134.772 18.5473 134.828 18.5283C134.885 18.5094 134.969 18.5 135.082 18.5C135.158 18.5189 135.228 18.5473 135.294 18.5851C135.36 18.6229 135.402 18.6607 135.421 18.6985C135.449 18.7363 135.435 18.7694 135.379 18.7978C135.341 18.7978 135.317 18.8119 135.308 18.8403C135.308 18.8592 135.308 18.8687 135.308 18.8687C135.327 18.9065 135.285 18.9868 135.181 19.1097C135.087 19.2232 134.965 19.3508 134.814 19.4926C134.664 19.6344 134.518 19.7573 134.377 19.8613C134.245 19.9558 134.151 20.0031 134.095 20.0031C134.001 20.0031 133.954 20.0314 133.954 20.0881C133.954 20.107 133.883 20.1543 133.742 20.2299C133.611 20.3056 133.455 20.3812 133.277 20.4568C133.108 20.5324 132.957 20.5844 132.825 20.6128Z" fill="#424242"/>
<path d="M137.656 20.8113C137.242 20.8113 136.904 20.6553 136.641 20.3434C136.377 20.022 136.25 19.6249 136.26 19.1523C136.279 18.8119 136.344 18.448 136.457 18.0604C136.579 17.6634 136.739 17.2852 136.937 16.926C137.134 16.5573 137.351 16.2359 137.586 15.9618C137.821 15.6876 138.065 15.4938 138.319 15.3804C138.413 15.3331 138.512 15.2953 138.615 15.267C138.728 15.2386 138.841 15.2244 138.954 15.2244C139.057 15.2244 139.165 15.2433 139.278 15.2811C139.391 15.3095 139.485 15.3426 139.56 15.3804C139.72 15.4466 139.843 15.5269 139.927 15.6215C140.012 15.716 140.087 15.8625 140.153 16.061C140.181 16.2407 140.195 16.3683 140.195 16.4439C140.195 16.5195 140.172 16.633 140.125 16.7842C140.012 17.1245 139.866 17.4176 139.687 17.6634C139.509 17.9092 139.269 18.1171 138.968 18.2873C138.893 18.3346 138.803 18.3724 138.7 18.4007C138.606 18.4196 138.507 18.4291 138.404 18.4291C138.216 18.4291 138.032 18.396 137.854 18.3298C137.684 18.2542 137.548 18.1455 137.445 18.0037L137.346 17.8902L137.304 18.0037C137.209 18.2589 137.134 18.4953 137.078 18.7127C137.031 18.9301 137.007 19.1286 137.007 19.3082C137.007 19.4217 137.017 19.5304 137.036 19.6344C137.064 19.7384 137.101 19.8282 137.148 19.9038C137.186 19.9605 137.247 20.0031 137.332 20.0314C137.426 20.0503 137.525 20.0598 137.628 20.0598C137.694 20.0598 137.76 20.0598 137.825 20.0598C137.901 20.0503 137.971 20.0314 138.037 20.0031C138.197 19.9463 138.324 19.8849 138.418 19.8187C138.521 19.7525 138.625 19.6816 138.728 19.606L138.785 19.5777H138.771C138.883 19.5209 138.982 19.4642 139.067 19.4075C139.161 19.3508 139.208 19.3224 139.208 19.3224C139.245 19.3224 139.283 19.2988 139.321 19.2515C139.396 19.2137 139.49 19.2279 139.603 19.2941C139.725 19.3602 139.786 19.4453 139.786 19.5493C139.777 19.5966 139.734 19.6722 139.659 19.7762C139.584 19.8707 139.499 19.9605 139.405 20.0456C139.321 20.1307 139.25 20.1779 139.194 20.1874C139.184 20.1968 139.151 20.2158 139.095 20.2441C139.039 20.263 139.001 20.2819 138.982 20.3008H138.996C138.912 20.4143 138.827 20.471 138.742 20.471H138.629C138.592 20.5372 138.47 20.6128 138.263 20.6979C138.056 20.7735 137.854 20.8113 137.656 20.8113ZM138.291 17.6917C138.46 17.6917 138.606 17.6445 138.728 17.5499C138.86 17.4459 138.973 17.3325 139.067 17.2096C139.255 16.9544 139.363 16.7086 139.391 16.4723C139.429 16.2265 139.401 16.0563 139.307 15.9618C139.25 15.9334 139.198 15.9192 139.151 15.9192C139.114 15.9098 139.034 15.924 138.912 15.9618C138.827 15.9807 138.709 16.0516 138.559 16.1745C138.408 16.2974 138.258 16.4344 138.108 16.5857C137.967 16.737 137.858 16.8646 137.783 16.9686L137.6 17.2663C137.675 17.238 137.746 17.2238 137.811 17.2238C137.887 17.2143 137.929 17.2191 137.938 17.238C137.938 17.3231 137.952 17.4034 137.981 17.479C138.018 17.5452 138.061 17.5972 138.108 17.635C138.164 17.6728 138.225 17.6917 138.291 17.6917Z" fill="#424242"/>
<path d="M90.2136 34.4524C90.0161 34.6225 89.7857 34.7218 89.5224 34.7501C89.2685 34.7785 89.0193 34.7407 88.7748 34.6367C88.5303 34.5233 88.3282 34.3531 88.1683 34.1262C88.0084 33.9183 87.905 33.6819 87.858 33.4172C87.8109 33.1431 87.8062 32.7886 87.8439 32.3537C87.8721 31.9851 87.9896 31.6164 88.1965 31.2477C88.4034 30.8696 88.6526 30.534 88.9441 30.2409C89.245 29.9479 89.5412 29.7446 89.8328 29.6312C89.9738 29.5367 90.0914 29.4941 90.1854 29.5036C90.2888 29.5036 90.444 29.513 90.6509 29.5319C90.8672 29.5603 91.027 29.6028 91.1305 29.6596C91.2433 29.7163 91.3327 29.7919 91.3985 29.8864C91.5396 30.0282 91.6336 30.17 91.6806 30.3118C91.7276 30.4442 91.7511 30.5765 91.7511 30.7089C91.7135 30.9168 91.5725 31.1721 91.328 31.4746C91.0929 31.7676 90.7825 32.0087 90.397 32.1978C90.1901 32.2639 89.9644 32.2923 89.7199 32.2828C89.4754 32.2734 89.2732 32.2119 89.1134 32.0985C88.9347 32.0229 88.8172 32.0371 88.7607 32.141C88.7043 32.2356 88.6526 32.4719 88.6056 32.85C88.568 33.2093 88.5962 33.4739 88.6902 33.6441C88.7842 33.8048 88.9112 33.8993 89.0711 33.9277C89.2591 33.9655 89.4049 33.9939 89.5083 34.0128C89.6212 34.0222 89.7575 33.9797 89.9174 33.8852C90.0679 33.7906 90.1619 33.7386 90.1995 33.7292C90.2371 33.7103 90.2653 33.6914 90.2841 33.6725C90.3124 33.6441 90.3735 33.5827 90.4675 33.4881C90.5333 33.422 90.5851 33.3747 90.6227 33.3463C90.6603 33.3085 90.7026 33.2896 90.7496 33.2896C90.7967 33.2896 90.839 33.3132 90.8766 33.3605C90.9142 33.3983 90.9518 33.4267 90.9894 33.4456C91.0835 33.4456 91.1023 33.5023 91.0459 33.6157C90.9988 33.7292 90.9001 33.8663 90.7496 34.027C90.5992 34.1782 90.4205 34.32 90.2136 34.4524ZM90.1995 31.4462C90.303 31.399 90.4111 31.3328 90.5239 31.2477C90.6368 31.1532 90.7308 31.0539 90.8061 30.9499C90.8907 30.8365 90.933 30.742 90.933 30.6663C90.933 30.534 90.8719 30.4253 90.7496 30.3402C90.6274 30.2457 90.444 30.2315 90.1995 30.2977C90.0961 30.326 89.9785 30.3969 89.8469 30.5104C89.7152 30.6143 89.5883 30.7325 89.466 30.8648C89.3532 30.9972 89.2591 31.1154 89.1839 31.2193C89.1181 31.3233 89.0946 31.3848 89.1134 31.4037C89.1416 31.451 89.2215 31.4888 89.3532 31.5171C89.4848 31.536 89.6306 31.5408 89.7904 31.5313C89.9597 31.5218 90.0961 31.4935 90.1995 31.4462Z" fill="#424242"/>
<path d="M93.4889 34.0837C93.4231 34.027 93.3384 33.8568 93.235 33.5732C93.141 33.2896 93.0469 32.9587 92.9529 32.5806C92.8682 32.193 92.7977 31.8385 92.7413 31.5171C92.7037 31.3281 92.6614 31.1674 92.6143 31.035C92.5767 30.9027 92.5438 30.7939 92.5156 30.7089C92.4686 30.5387 92.4545 30.3969 92.4733 30.2835C92.4921 30.17 92.5579 30.0802 92.6708 30.0141C92.7178 29.9857 92.7742 29.9668 92.84 29.9573C92.9153 29.9384 92.9717 29.9337 93.0093 29.9432C93.1221 29.981 93.2256 30.1559 93.3196 30.4678C93.4137 30.7703 93.4983 31.1721 93.5735 31.6731C93.6111 31.9662 93.6582 32.2167 93.7146 32.4246C93.771 32.6326 93.7992 32.7555 93.7992 32.7933C93.8368 32.8689 93.8792 32.9446 93.9262 33.0202C93.9826 33.0864 94.0484 33.0816 94.1237 33.006C94.1613 32.9682 94.2365 32.8831 94.3493 32.7508C94.4716 32.6184 94.5891 32.4766 94.702 32.3254C94.8995 32.0607 95.0546 31.8433 95.1675 31.6731C95.2897 31.5029 95.4261 31.3233 95.5765 31.1343C95.6424 31.0397 95.7176 30.9357 95.8022 30.8223C95.8869 30.7089 95.9715 30.6049 96.0561 30.5104C96.1502 30.4064 96.2348 30.3449 96.31 30.326C96.5357 30.2882 96.658 30.3355 96.6768 30.4678C96.6956 30.6002 96.611 30.7987 96.4229 31.0634C96.3477 31.1768 96.2865 31.2855 96.2395 31.3895C96.2019 31.484 96.1643 31.5502 96.1267 31.588C96.0514 31.7393 95.9339 31.9331 95.774 32.1694C95.6142 32.3963 95.459 32.609 95.3085 32.8075C95.1581 32.9966 95.0546 33.1195 94.9982 33.1762C94.9606 33.214 94.876 33.2849 94.7443 33.3889C94.6221 33.4929 94.5045 33.6252 94.3917 33.7859C94.166 34.0033 93.9873 34.1357 93.8556 34.1829C93.724 34.2302 93.6017 34.1971 93.4889 34.0837Z" fill="#424242"/>
<path d="M98.342 34.9912C97.9283 34.9912 97.5897 34.8352 97.3264 34.5233C97.0631 34.2018 96.9362 33.8048 96.9456 33.3322C96.9644 32.9918 97.0302 32.6279 97.143 32.2403C97.2653 31.8433 97.4252 31.4651 97.6226 31.1059C97.8201 30.7372 98.0364 30.4158 98.2715 30.1417C98.5066 29.8675 98.7511 29.6737 99.005 29.5603C99.099 29.513 99.1978 29.4752 99.3012 29.4469C99.4141 29.4185 99.5269 29.4043 99.6398 29.4043C99.7432 29.4043 99.8513 29.4232 99.9642 29.461C100.077 29.4894 100.171 29.5225 100.246 29.5603C100.406 29.6265 100.528 29.7068 100.613 29.8014C100.698 29.8959 100.773 30.0424 100.839 30.2409C100.867 30.4205 100.881 30.5482 100.881 30.6238C100.881 30.6994 100.858 30.8129 100.811 30.9641C100.698 31.3044 100.552 31.5975 100.373 31.8433C100.195 32.089 99.9548 32.297 99.6539 32.4672C99.5786 32.5144 99.4893 32.5523 99.3859 32.5806C99.2918 32.5995 99.1931 32.609 99.0896 32.609C98.9016 32.609 98.7182 32.5759 98.5395 32.5097C98.3702 32.4341 98.2339 32.3254 98.1304 32.1836L98.0317 32.0701L97.9894 32.1836C97.8954 32.4388 97.8201 32.6751 97.7637 32.8926C97.7167 33.11 97.6932 33.3085 97.6932 33.4881C97.6932 33.6016 97.7026 33.7103 97.7214 33.8143C97.7496 33.9183 97.7872 34.0081 97.8342 34.0837C97.8718 34.1404 97.933 34.1829 98.0176 34.2113C98.1116 34.2302 98.2104 34.2397 98.3138 34.2397C98.3796 34.2397 98.4455 34.2397 98.5113 34.2397C98.5865 34.2302 98.6571 34.2113 98.7229 34.1829C98.8827 34.1262 99.0097 34.0648 99.1037 33.9986C99.2072 33.9324 99.3106 33.8615 99.4141 33.7859L99.4705 33.7575H99.4564C99.5692 33.7008 99.668 33.6441 99.7526 33.5874C99.8466 33.5307 99.8937 33.5023 99.8937 33.5023C99.9313 33.5023 99.9689 33.4787 100.007 33.4314C100.082 33.3936 100.176 33.4078 100.289 33.4739C100.411 33.5401 100.472 33.6252 100.472 33.7292C100.463 33.7765 100.42 33.8521 100.345 33.9561C100.27 34.0506 100.185 34.1404 100.091 34.2255C100.007 34.3106 99.936 34.3578 99.8796 34.3673C99.8702 34.3767 99.8372 34.3956 99.7808 34.424C99.7244 34.4429 99.6868 34.4618 99.668 34.4807H99.6821C99.5974 34.5942 99.5128 34.6509 99.4282 34.6509H99.3153C99.2777 34.7171 99.1555 34.7927 98.9486 34.8778C98.7417 34.9534 98.5395 34.9912 98.342 34.9912ZM98.9768 31.8716C99.1461 31.8716 99.2918 31.8244 99.4141 31.7298C99.5457 31.6258 99.6586 31.5124 99.7526 31.3895C99.9407 31.1343 100.049 30.8885 100.077 30.6522C100.115 30.4064 100.086 30.2362 99.9924 30.1417C99.936 30.1133 99.8843 30.0991 99.8372 30.0991C99.7996 30.0897 99.7197 30.1039 99.5974 30.1417C99.5128 30.1606 99.3953 30.2315 99.2448 30.3544C99.0943 30.4773 98.9439 30.6143 98.7934 30.7656C98.6524 30.9168 98.5442 31.0445 98.469 31.1484L98.2856 31.4462C98.3608 31.4179 98.4314 31.4037 98.4972 31.4037C98.5724 31.3942 98.6147 31.399 98.6241 31.4179C98.6241 31.5029 98.6383 31.5833 98.6665 31.6589C98.7041 31.7251 98.7464 31.7771 98.7934 31.8149C98.8498 31.8527 98.911 31.8716 98.9768 31.8716Z" fill="#424242"/>
<path d="M102.435 34.5091C102.407 34.5185 102.36 34.5138 102.294 34.4949C102.229 34.476 102.163 34.4524 102.097 34.424C102.031 34.3956 101.989 34.372 101.97 34.3531C101.932 34.3153 101.895 34.2586 101.857 34.1829C101.829 34.1073 101.829 33.9986 101.857 33.8568C101.885 33.7056 101.979 33.5118 102.139 33.2754C102.186 33.1809 102.243 33.0391 102.308 32.85C102.374 32.661 102.44 32.4624 102.506 32.2545C102.581 32.0371 102.647 31.8433 102.703 31.6731C102.769 31.5029 102.816 31.3848 102.845 31.3186C102.863 31.1579 102.854 31.0445 102.816 30.9783C102.788 30.9027 102.708 30.8601 102.576 30.8507C102.482 30.8507 102.407 30.8412 102.351 30.8223C102.304 30.8034 102.28 30.7089 102.28 30.5387C102.299 30.4064 102.332 30.3166 102.379 30.2693C102.435 30.2126 102.511 30.1511 102.605 30.085C102.699 30.0377 102.793 30.0046 102.887 29.9857C102.99 29.9668 103.089 29.9621 103.183 29.9715C103.277 29.981 103.352 30.0141 103.409 30.0708C103.475 30.1086 103.517 30.1937 103.536 30.326C103.554 30.4489 103.564 30.5765 103.564 30.7089C103.573 30.8412 103.583 30.9405 103.592 31.0066C103.686 30.931 103.813 30.827 103.973 30.6947C104.142 30.5529 104.288 30.4205 104.41 30.2977C104.561 30.1937 104.739 30.0897 104.946 29.9857C105.153 29.8723 105.304 29.8155 105.398 29.8155C105.501 29.8155 105.605 29.8439 105.708 29.9006C105.811 29.9479 105.882 30.0093 105.92 30.085C106.014 30.2457 106.056 30.3875 106.047 30.5104C106.047 30.6332 105.995 30.7609 105.891 30.8932C105.797 31.0161 105.68 31.1012 105.539 31.1484C105.407 31.1957 105.322 31.2193 105.285 31.2193C105.228 31.2193 105.158 31.1768 105.073 31.0917C104.989 31.0066 104.942 30.9357 104.932 30.879C104.932 30.8507 104.871 30.879 104.749 30.9641C104.636 31.0397 104.509 31.139 104.368 31.2619C104.227 31.3753 104.109 31.4793 104.015 31.5738C103.855 31.7724 103.686 32.0418 103.507 32.3821C103.329 32.7224 103.117 33.1336 102.873 33.6157C102.76 33.8521 102.68 34.0553 102.633 34.2255C102.586 34.3862 102.52 34.4807 102.435 34.5091Z" fill="#424242"/>
<path d="M107.645 38.21C107.636 38.2289 107.594 38.21 107.518 38.1533C107.453 38.0966 107.387 38.0257 107.321 37.9406C107.255 37.865 107.227 37.7988 107.236 37.7421C107.199 37.6098 107.203 37.4443 107.25 37.2458C107.307 37.0567 107.424 36.7731 107.603 36.395C107.697 36.2438 107.782 36.0641 107.857 35.8562C107.942 35.6482 108.036 35.4402 108.139 35.2323C108.186 35.1472 108.29 34.9628 108.449 34.6792C108.609 34.3956 108.779 34.0742 108.957 33.715C109.145 33.3558 109.3 33.0155 109.423 32.6941C109.178 32.9493 108.953 33.2093 108.746 33.4739C108.539 33.7292 108.346 33.9372 108.167 34.0979C107.998 34.2586 107.838 34.3342 107.688 34.3247C107.565 34.2964 107.434 34.2538 107.293 34.1971C107.161 34.131 107.072 34.0175 107.025 33.8568C106.987 33.6488 106.973 33.3841 106.982 33.0627C107.001 32.7413 107.062 32.2545 107.166 31.6022C107.241 31.2808 107.283 31.035 107.293 30.8648C107.312 30.6852 107.307 30.5529 107.279 30.4678C107.25 30.3827 107.199 30.3071 107.123 30.2409C107.001 30.1275 106.935 30.0282 106.926 29.9432C106.926 29.8486 106.992 29.7683 107.123 29.7021C107.321 29.6548 107.462 29.6407 107.547 29.6596C107.631 29.669 107.735 29.7446 107.857 29.8864C107.932 30.0093 107.998 30.1275 108.054 30.2409C108.12 30.3449 108.153 30.5293 108.153 30.7939C108.153 30.9074 108.134 31.0586 108.097 31.2477C108.069 31.4368 108.04 31.6164 108.012 31.7865C107.993 31.9472 107.979 32.0607 107.97 32.1269C107.876 32.4766 107.815 32.7791 107.786 33.0344C107.768 33.2896 107.782 33.4172 107.829 33.4172C108.017 33.266 108.196 33.0958 108.365 32.9068C108.543 32.7082 108.727 32.4861 108.915 32.2403C109.112 31.9851 109.329 31.6967 109.564 31.3753C109.648 31.2146 109.733 31.0586 109.818 30.9074C109.902 30.7561 109.973 30.6002 110.029 30.4395C110.086 30.3166 110.142 30.2173 110.199 30.1417C110.255 30.066 110.302 30.0235 110.34 30.0141C110.387 29.9951 110.443 29.9999 110.509 30.0282C110.584 30.0566 110.65 30.0897 110.706 30.1275C110.772 30.1559 110.805 30.1795 110.805 30.1984C110.814 30.2078 110.838 30.2173 110.876 30.2268C110.913 30.2362 110.951 30.2457 110.988 30.2551C111.035 30.2551 111.059 30.2693 111.059 30.2977C111.059 30.3166 111.035 30.378 110.988 30.482C110.951 30.586 110.904 30.7041 110.847 30.8365C110.8 30.9594 110.758 31.0728 110.72 31.1768C110.683 31.2713 110.669 31.3281 110.678 31.347C110.697 31.3659 110.683 31.4368 110.636 31.5597C110.589 31.6731 110.532 31.8007 110.467 31.9425C110.41 32.0843 110.358 32.2119 110.311 32.3254C110.217 32.6373 110.109 32.9493 109.987 33.2612C109.865 33.5638 109.719 33.8663 109.55 34.1688C109.493 34.2822 109.409 34.4571 109.296 34.6934C109.192 34.9298 109.089 35.1614 108.985 35.3882C108.891 35.6246 108.816 35.8042 108.76 35.9271C108.722 36.0027 108.666 36.1209 108.59 36.2816C108.525 36.4517 108.449 36.6361 108.365 36.8346C108.29 37.0331 108.214 37.2174 108.139 37.3876C108.064 37.5672 108.007 37.7043 107.97 37.7988C107.951 37.9784 107.909 38.1108 107.843 38.1959C107.805 38.1959 107.763 38.1959 107.716 38.1959C107.669 38.2053 107.645 38.21 107.645 38.21Z" fill="#424242"/>
<path d="M115.742 35.0054C115.564 34.9297 115.394 34.8305 115.234 34.7076C115.075 34.5753 114.971 34.4665 114.924 34.3815C114.924 34.2964 114.938 34.2397 114.966 34.2113C114.995 34.1735 115.075 34.1593 115.206 34.1688C115.347 34.1688 115.573 34.1877 115.883 34.2255C115.996 34.2255 116.137 34.216 116.306 34.1971C116.476 34.1782 116.631 34.1499 116.772 34.112C116.922 34.0742 117.007 34.027 117.026 33.9702C117.073 33.9702 117.082 33.9561 117.054 33.9277C117.026 33.8899 116.993 33.8521 116.955 33.8143C116.918 33.8143 116.875 33.8001 116.828 33.7717C116.781 33.7339 116.739 33.715 116.701 33.715C116.701 33.6677 116.654 33.6157 116.56 33.559C116.476 33.4929 116.386 33.4409 116.292 33.403C116.085 33.2329 115.907 33.0816 115.756 32.9493C115.606 32.8075 115.549 32.713 115.587 32.6657C115.587 32.6279 115.587 32.609 115.587 32.609C115.587 32.5995 115.587 32.5948 115.587 32.5948C115.521 32.5948 115.446 32.5003 115.361 32.3112C115.286 32.1221 115.248 31.952 115.248 31.8007C115.248 31.6873 115.281 31.5455 115.347 31.3753C115.413 31.1957 115.502 31.0114 115.615 30.8223C115.728 30.6332 115.846 30.4773 115.968 30.3544C116.137 30.1937 116.349 30.0235 116.603 29.8439C116.857 29.6548 117.106 29.4894 117.35 29.3476C117.604 29.1963 117.816 29.0971 117.985 29.0498C118.154 28.9836 118.309 28.9506 118.45 28.9506C118.601 28.9506 118.733 28.9836 118.845 29.0498C118.939 29.0971 119.024 29.168 119.099 29.2625C119.184 29.3476 119.255 29.4374 119.311 29.5319C119.377 29.617 119.419 29.6926 119.438 29.7588C119.438 29.8723 119.428 29.9999 119.41 30.1417C119.391 30.274 119.363 30.3922 119.325 30.4962C119.297 30.6002 119.25 30.6522 119.184 30.6522C119.184 30.6522 119.17 30.6569 119.142 30.6663C119.123 30.6663 119.113 30.69 119.113 30.7372C119.113 30.8318 119.043 30.9405 118.902 31.0634C118.723 31.1863 118.568 31.2619 118.436 31.2902C118.305 31.3092 118.225 31.2572 118.197 31.1343C118.168 31.0965 118.15 31.0634 118.14 31.035C118.131 31.0066 118.107 30.9925 118.07 30.9925C118.07 30.9925 118.056 30.9783 118.027 30.9499C117.999 30.9216 117.985 30.8743 117.985 30.8081C117.985 30.7703 117.999 30.7372 118.027 30.7089C118.056 30.6711 118.07 30.6522 118.07 30.6522C118.117 30.6522 118.178 30.6002 118.253 30.4962C118.328 30.3827 118.394 30.2646 118.45 30.1417C118.516 30.0093 118.549 29.9195 118.549 29.8723C118.549 29.8155 118.54 29.7825 118.521 29.773C118.512 29.7635 118.469 29.7588 118.394 29.7588C118.262 29.8155 118.103 29.8912 117.914 29.9857C117.726 30.0802 117.548 30.1748 117.378 30.2693C117.219 30.3544 117.101 30.4347 117.026 30.5104C116.988 30.5765 116.965 30.6191 116.955 30.638C116.946 30.6474 116.922 30.6522 116.885 30.6522C116.885 30.6143 116.852 30.6332 116.786 30.7089C116.73 30.775 116.654 30.8696 116.56 30.9925C116.476 31.1154 116.391 31.2383 116.306 31.3611C116.231 31.4746 116.175 31.5597 116.137 31.6164C116.118 31.6353 116.095 31.692 116.067 31.7865C116.048 31.8716 116.038 31.952 116.038 32.0276C116.001 32.141 116.005 32.2214 116.053 32.2687C116.1 32.3065 116.203 32.3916 116.363 32.5239C116.692 32.7697 116.951 32.9729 117.139 33.1336C117.327 33.2943 117.468 33.4267 117.562 33.5307C117.656 33.6347 117.712 33.7292 117.731 33.8143C117.9 34.0979 117.952 34.3153 117.886 34.4665C117.82 34.6178 117.661 34.7501 117.407 34.8636C117.313 34.9108 117.157 34.9487 116.941 34.977C116.725 35.0054 116.504 35.0196 116.278 35.0196C116.053 35.029 115.874 35.0243 115.742 35.0054Z" fill="#424242"/>
<path d="M119.746 37.4301C119.633 37.5058 119.515 37.501 119.393 37.416C119.28 37.3309 119.196 37.2033 119.139 37.0331C119.083 36.8629 119.087 36.6833 119.153 36.4943C119.172 36.4375 119.2 36.343 119.238 36.2107C119.275 36.0878 119.299 35.9791 119.308 35.8845C119.318 35.8184 119.346 35.7049 119.393 35.5442C119.44 35.393 119.492 35.2417 119.548 35.0905C119.614 34.9392 119.666 34.8305 119.703 34.7643C119.76 34.6698 119.797 34.5611 119.816 34.4382C119.844 34.3153 119.859 34.2208 119.859 34.1546C119.877 34.0884 119.901 34.0128 119.929 33.9277C119.967 33.8426 120.004 33.7765 120.042 33.7292C120.061 33.6536 120.089 33.5732 120.127 33.4881C120.164 33.3936 120.206 33.3132 120.253 33.2471C120.272 33.1809 120.286 33.1005 120.296 33.006C120.315 32.9115 120.343 32.8595 120.38 32.85C120.39 32.8122 120.395 32.7744 120.395 32.7366C120.404 32.6988 120.423 32.6468 120.451 32.5806C120.47 32.4766 120.512 32.3254 120.578 32.1269C120.644 31.9283 120.724 31.7109 120.818 31.4746C120.921 31.2004 120.968 30.9405 120.959 30.6947C120.959 30.4395 120.888 30.2835 120.747 30.2268C120.672 30.1889 120.625 30.1369 120.606 30.0708C120.587 29.9951 120.597 29.9195 120.634 29.8439C120.672 29.7683 120.728 29.7163 120.804 29.6879C120.888 29.6501 120.978 29.6359 121.072 29.6454C121.175 29.6548 121.264 29.6737 121.34 29.7021C121.415 29.721 121.448 29.7399 121.438 29.7588C121.438 29.8061 121.462 29.8344 121.509 29.8439C121.528 29.8155 121.565 29.8486 121.622 29.9432C121.688 30.0282 121.749 30.1275 121.805 30.2409C121.862 30.3544 121.89 30.4347 121.89 30.482C121.871 30.5198 121.862 30.5434 121.862 30.5529C121.862 30.5529 121.88 30.5529 121.918 30.5529C121.918 30.5529 121.97 30.5293 122.073 30.482C122.177 30.4253 122.285 30.3638 122.398 30.2977C122.52 30.222 122.6 30.1653 122.637 30.1275C122.637 30.1275 122.661 30.118 122.708 30.0991C122.764 30.0708 122.811 30.0377 122.849 29.9999C123.037 29.9242 123.239 29.9101 123.455 29.9573C123.681 30.0046 123.86 30.0897 123.991 30.2126C124.18 30.4489 124.274 30.6758 124.274 30.8932C124.283 31.1106 124.222 31.3848 124.09 31.7156C124.071 31.7629 124.029 31.8433 123.963 31.9567C123.907 32.0607 123.85 32.1599 123.794 32.2545C123.738 32.3396 123.709 32.3821 123.709 32.3821C123.493 32.7224 123.239 33.006 122.948 33.2329C122.656 33.4598 122.36 33.6583 122.059 33.8284C121.965 33.8946 121.866 33.9466 121.763 33.9844C121.669 34.0128 121.584 34.0317 121.509 34.0411C121.434 34.0411 121.382 34.0317 121.354 34.0128C121.25 33.9372 121.156 33.7765 121.072 33.5307C121.025 33.6536 120.978 33.7765 120.931 33.8993C120.893 34.0128 120.869 34.0884 120.86 34.1262C120.851 34.1924 120.841 34.2491 120.832 34.2964C120.822 34.3342 120.799 34.3673 120.761 34.3956C120.761 34.3956 120.757 34.4145 120.747 34.4524C120.738 34.4902 120.705 34.5469 120.648 34.6225C120.554 34.8967 120.47 35.133 120.395 35.3315C120.319 35.5395 120.258 35.7144 120.211 35.8562C120.164 36.0074 120.127 36.1398 120.098 36.2532C120.08 36.5084 120.028 36.759 119.943 37.0047C119.859 37.26 119.793 37.4018 119.746 37.4301ZM121.424 33.3889C121.462 33.37 121.542 33.318 121.664 33.2329C121.796 33.1384 121.941 33.0296 122.101 32.9068C122.261 32.7744 122.407 32.6515 122.539 32.5381C122.68 32.4246 122.774 32.3396 122.821 32.2828C122.896 32.1978 122.966 32.108 123.032 32.0134C123.098 31.9094 123.15 31.796 123.187 31.6731C123.216 31.5975 123.249 31.5124 123.286 31.4179C123.324 31.3233 123.357 31.2335 123.385 31.1484C123.423 31.0728 123.437 30.9972 123.427 30.9216C123.427 30.8365 123.399 30.7656 123.343 30.7089C123.305 30.6994 123.192 30.7278 123.004 30.7939C122.816 30.8507 122.609 30.9499 122.383 31.0917C122.158 31.2241 121.96 31.399 121.791 31.6164C121.594 31.8716 121.448 32.1363 121.354 32.4105C121.269 32.6846 121.231 32.9162 121.241 33.1053C121.26 33.2943 121.321 33.3889 121.424 33.3889Z" fill="#424242"/>
<path d="M126.008 34.6083C125.641 34.4571 125.401 34.2491 125.288 33.9844C125.185 33.7103 125.166 33.2896 125.232 32.7224C125.251 32.4294 125.26 32.2356 125.26 32.141C125.26 32.0465 125.208 31.952 125.105 31.8574C125.077 31.8196 125.025 31.7676 124.95 31.7015C124.884 31.6353 124.856 31.5786 124.865 31.5313C124.856 31.4651 124.86 31.3942 124.879 31.3186C124.898 31.2335 124.926 31.191 124.964 31.191C125.001 31.191 125.039 31.1815 125.077 31.1626C125.124 31.1437 125.166 31.1437 125.204 31.1626C125.241 31.1626 125.284 31.1674 125.331 31.1768C125.378 31.1863 125.401 31.2099 125.401 31.2477C125.439 31.3139 125.5 31.3233 125.584 31.2761C125.669 31.2193 125.758 31.0965 125.852 30.9074C125.946 30.7561 126.069 30.6049 126.219 30.4536C126.379 30.3024 126.534 30.1653 126.685 30.0424C126.845 29.9101 126.976 29.8155 127.08 29.7588C127.127 29.7399 127.197 29.7163 127.291 29.6879C127.385 29.6596 127.484 29.6359 127.587 29.617C127.7 29.5981 127.794 29.5934 127.87 29.6028C128.039 29.6123 128.18 29.6596 128.293 29.7446C128.415 29.8297 128.528 29.929 128.631 30.0424C128.754 30.1275 128.829 30.2409 128.857 30.3827C128.895 30.5245 128.904 30.6758 128.885 30.8365C128.866 30.9972 128.824 31.1437 128.758 31.2761C128.73 31.3706 128.65 31.484 128.518 31.6164C128.387 31.7487 128.236 31.8763 128.067 31.9992C127.898 32.1221 127.743 32.2119 127.602 32.2687C127.479 32.297 127.319 32.3206 127.122 32.3396C126.934 32.3585 126.755 32.3679 126.586 32.3679C126.426 32.3585 126.318 32.3396 126.262 32.3112C126.196 32.2734 126.144 32.3254 126.106 32.4672C126.069 32.609 126.041 32.8122 126.022 33.0769C126.003 33.2849 126.003 33.4361 126.022 33.5307C126.041 33.6252 126.059 33.6914 126.078 33.7292C126.144 33.7954 126.233 33.8804 126.346 33.9844C126.468 34.079 126.638 34.0931 126.854 34.027C127.033 33.9797 127.207 33.8568 127.376 33.6583C127.555 33.4598 127.719 33.2991 127.87 33.1762C127.907 33.11 127.968 33.0722 128.053 33.0627C128.147 33.0438 128.246 33.0486 128.349 33.0769C128.453 33.1431 128.495 33.2234 128.476 33.318C128.467 33.403 128.42 33.5354 128.335 33.715C128.307 33.7812 128.241 33.8663 128.138 33.9702C128.044 34.0648 127.935 34.164 127.813 34.268C127.7 34.3626 127.597 34.4382 127.503 34.4949C127.221 34.6462 126.957 34.7265 126.713 34.736C126.468 34.736 126.233 34.6934 126.008 34.6083ZM126.84 31.7298C127.047 31.6826 127.211 31.6495 127.334 31.6306C127.456 31.6117 127.573 31.5597 127.686 31.4746C127.799 31.3801 127.94 31.2052 128.109 30.9499C128.147 30.8459 128.156 30.742 128.138 30.638C128.128 30.534 128.105 30.4631 128.067 30.4253C127.982 30.3307 127.879 30.3024 127.757 30.3402C127.644 30.3686 127.536 30.4205 127.432 30.4962C127.366 30.5245 127.268 30.5954 127.136 30.7089C127.014 30.8129 126.892 30.9357 126.769 31.0775C126.647 31.2099 126.548 31.3328 126.473 31.4462C126.398 31.5597 126.379 31.6258 126.417 31.6447C126.398 31.6826 126.45 31.7062 126.572 31.7156C126.704 31.7251 126.793 31.7298 126.84 31.7298Z" fill="#424242"/>
<path d="M131.639 34.58C131.516 34.6367 131.375 34.6603 131.215 34.6509C131.056 34.6414 130.839 34.5894 130.567 34.4949C130.548 34.4949 130.505 34.476 130.44 34.4382C130.383 34.4004 130.322 34.3531 130.256 34.2964C130.2 34.2302 130.153 34.1593 130.115 34.0837C129.965 33.8663 129.904 33.5448 129.932 33.1195C129.96 32.6941 130.092 32.1836 130.327 31.588C130.393 31.4462 130.491 31.2666 130.623 31.0492C130.764 30.8318 130.9 30.6332 131.032 30.4536C131.173 30.2646 131.272 30.1559 131.328 30.1275C131.328 30.1275 131.38 30.1086 131.483 30.0708C131.587 30.033 131.718 29.9715 131.878 29.8864C131.925 29.8675 131.977 29.8486 132.034 29.8297C132.099 29.8108 132.165 29.7966 132.231 29.7872C132.297 29.7777 132.353 29.7777 132.4 29.7872C132.588 29.7966 132.781 29.8675 132.979 29.9999C133.185 30.1228 133.355 30.2693 133.486 30.4395C133.618 30.6002 133.66 30.742 133.613 30.8648C133.613 30.8838 133.585 30.9216 133.529 30.9783C133.482 31.0256 133.425 31.0775 133.359 31.1343C133.303 31.1815 133.256 31.2288 133.218 31.2761C133.171 31.3328 133.106 31.3564 133.021 31.347C132.946 31.3375 132.875 31.2997 132.809 31.2335C132.753 31.1579 132.72 31.0634 132.711 30.9499C132.692 30.8743 132.621 30.8034 132.499 30.7372C132.386 30.6711 132.33 30.638 132.33 30.638C132.255 30.638 132.146 30.7089 132.005 30.8507C131.874 30.983 131.742 31.1437 131.61 31.3328C131.441 31.5029 131.295 31.7062 131.173 31.9425C131.051 32.1694 130.952 32.3868 130.877 32.5948C130.811 32.7933 130.764 32.9351 130.736 33.0202C130.698 33.1147 130.693 33.2471 130.722 33.4172C130.75 33.5874 130.783 33.6914 130.82 33.7292C130.858 33.7481 130.952 33.7528 131.103 33.7434C131.262 33.7339 131.45 33.715 131.667 33.6866C131.883 33.6488 132.095 33.6063 132.302 33.559C132.508 33.5118 132.678 33.4598 132.809 33.403C132.988 33.2896 133.143 33.2234 133.275 33.2045C133.406 33.1856 133.505 33.1856 133.571 33.2045C133.674 33.2423 133.736 33.2943 133.754 33.3605C133.773 33.4267 133.75 33.5023 133.684 33.5874C133.618 33.663 133.505 33.7434 133.345 33.8284C133.195 33.9041 133.059 33.9892 132.936 34.0837C132.823 34.1688 132.767 34.2349 132.767 34.2822C132.729 34.2822 132.687 34.2964 132.64 34.3247C132.602 34.3436 132.57 34.3484 132.541 34.3389C132.523 34.3389 132.447 34.3531 132.316 34.3815C132.184 34.4098 132.048 34.4429 131.907 34.4807C131.775 34.5185 131.686 34.5516 131.639 34.58Z" fill="#424242"/>
<path d="M135.025 34.4949C134.949 34.4193 134.893 34.3247 134.855 34.2113C134.827 34.0979 134.818 33.9844 134.827 33.871C134.837 33.7575 134.86 33.663 134.898 33.5874C134.898 33.5118 134.907 33.455 134.926 33.4172C134.954 33.37 134.963 33.3274 134.954 33.2896C134.945 33.2518 134.954 33.1856 134.982 33.0911C135.01 32.9966 135.039 32.9068 135.067 32.8217C135.133 32.6704 135.203 32.4908 135.278 32.2828C135.354 32.0654 135.424 31.8527 135.49 31.6447C135.556 31.4368 135.612 31.2572 135.659 31.1059C135.706 30.9547 135.735 30.8601 135.744 30.8223C135.744 30.7089 135.819 30.6474 135.97 30.638C136.083 30.6002 136.167 30.6002 136.224 30.638C136.28 30.6663 136.355 30.7561 136.449 30.9074C136.524 30.983 136.553 31.0965 136.534 31.2477C136.515 31.399 136.454 31.588 136.351 31.8149C136.313 31.8905 136.266 31.9992 136.209 32.141C136.162 32.2828 136.13 32.4105 136.111 32.5239C136.073 32.5995 136.026 32.7082 135.97 32.85C135.923 32.9824 135.88 33.11 135.843 33.2329C135.824 33.2802 135.805 33.3511 135.786 33.4456C135.767 33.5307 135.744 33.6252 135.716 33.7292C135.688 33.8237 135.65 33.9088 135.603 33.9844C135.518 34.372 135.438 34.5989 135.363 34.6651C135.297 34.7312 135.184 34.6745 135.025 34.4949ZM136.393 28.7379C136.346 28.6906 136.303 28.6244 136.266 28.5393C136.228 28.4448 136.205 28.3597 136.195 28.2841C136.186 28.199 136.195 28.1565 136.224 28.1565C136.299 28.147 136.388 28.0667 136.492 27.9154C136.595 27.7642 136.637 27.6318 136.619 27.5184C136.619 27.4806 136.633 27.4475 136.661 27.4191C136.689 27.3813 136.722 27.3577 136.76 27.3482C136.872 27.2726 136.981 27.2632 137.084 27.3199C137.197 27.3671 137.3 27.4664 137.394 27.6177C137.479 27.7973 137.502 27.9485 137.465 28.0714C137.427 28.1848 137.324 28.3456 137.155 28.5535C137.013 28.7426 136.882 28.8466 136.76 28.8655C136.647 28.8844 136.524 28.8419 136.393 28.7379Z" fill="#424242"/>
<path d="M138.699 34.5374C138.624 34.5563 138.525 34.5658 138.403 34.5658C138.281 34.5563 138.173 34.5422 138.079 34.5233C137.994 34.4949 137.952 34.4665 137.952 34.4382C137.952 34.3909 137.928 34.3673 137.881 34.3673C137.881 34.3673 137.858 34.3484 137.811 34.3106C137.773 34.2727 137.712 34.2349 137.627 34.1971C137.543 34.0648 137.5 33.923 137.5 33.7717C137.5 33.611 137.543 33.3605 137.627 33.0202C137.656 32.7839 137.745 32.5097 137.895 32.1978C138.055 31.8763 138.248 31.5502 138.474 31.2193C138.699 30.8885 138.935 30.5907 139.179 30.326C139.433 30.0613 139.663 29.8675 139.87 29.7446C140.002 29.6123 140.162 29.5414 140.35 29.5319C140.538 29.5225 140.717 29.565 140.886 29.6596C140.98 29.7068 141.074 29.7825 141.168 29.8864C141.262 29.9904 141.351 30.1039 141.436 30.2268C141.521 30.3496 141.591 30.4725 141.648 30.5954C141.676 30.6994 141.69 30.7939 141.69 30.879C141.699 30.9547 141.699 31.0492 141.69 31.1626C141.69 31.2761 141.676 31.4462 141.648 31.6731C141.601 31.8433 141.558 32.0512 141.521 32.297C141.492 32.5428 141.478 32.7555 141.478 32.9351C141.459 33.1147 141.478 33.2423 141.535 33.318C141.601 33.3936 141.695 33.3983 141.817 33.3322C141.93 33.2754 142.038 33.2518 142.141 33.2612C142.245 33.2612 142.325 33.2896 142.381 33.3463C142.447 33.403 142.48 33.4881 142.48 33.6016C142.48 33.715 142.423 33.8332 142.311 33.9561C142.207 34.0695 142.075 34.1688 141.916 34.2538C141.765 34.3295 141.619 34.3673 141.478 34.3673C141.375 34.3673 141.276 34.3058 141.182 34.1829C141.088 34.0506 141.003 33.8946 140.928 33.715C140.862 33.5259 140.801 33.3463 140.745 33.1762L140.66 32.85L140.054 33.4314C139.931 33.5638 139.809 33.6866 139.687 33.8001C139.574 33.9041 139.503 33.9797 139.475 34.027C139.428 34.112 139.339 34.1971 139.207 34.2822C139.085 34.3673 138.916 34.4524 138.699 34.5374ZM138.742 33.7008C138.902 33.6063 139.085 33.4692 139.292 33.2896C139.499 33.1005 139.701 32.8973 139.898 32.6799C140.096 32.453 140.26 32.245 140.392 32.056C140.552 31.8385 140.674 31.6353 140.759 31.4462C140.844 31.2572 140.905 31.0775 140.942 30.9074C140.905 30.8034 140.844 30.6947 140.759 30.5812C140.674 30.4584 140.599 30.3922 140.533 30.3827C140.326 30.3827 140.105 30.5151 139.87 30.7798C139.645 31.035 139.424 31.3139 139.207 31.6164C139.17 31.6636 139.118 31.7393 139.052 31.8433C138.986 31.9472 138.92 32.0465 138.855 32.141C138.798 32.2261 138.761 32.2828 138.742 32.3112C138.714 32.349 138.657 32.4577 138.572 32.6373C138.497 32.8075 138.422 32.9824 138.347 33.162C138.272 33.3321 138.234 33.4456 138.234 33.5023C138.234 33.559 138.239 33.6205 138.248 33.6866C138.267 33.7528 138.314 33.7954 138.389 33.8143C138.464 33.8332 138.582 33.7954 138.742 33.7008Z" fill="#424242"/>
<path d="M143.585 34.9487C143.407 34.9959 143.261 34.9581 143.148 34.8352C143.044 34.7123 142.983 34.5233 142.965 34.268C142.946 34.0128 142.974 33.7103 143.049 33.3605C143.096 33.2471 143.134 33.1384 143.162 33.0344C143.19 32.9209 143.204 32.8311 143.204 32.765C143.223 32.6704 143.261 32.5333 143.317 32.3537C143.374 32.1647 143.435 31.9709 143.501 31.7724C143.566 31.5738 143.628 31.399 143.684 31.2477C143.75 31.087 143.792 30.9877 143.811 30.9499C143.849 30.9499 143.881 30.9168 143.91 30.8507C143.938 30.7845 143.952 30.7183 143.952 30.6522C143.952 30.5765 143.966 30.4914 143.994 30.3969C144.032 30.3024 144.07 30.2362 144.107 30.1984C144.107 30.1511 144.117 30.0991 144.135 30.0424C144.164 29.9762 144.178 29.9242 144.178 29.8864C144.178 29.8486 144.187 29.8108 144.206 29.773C144.234 29.7352 144.248 29.6974 144.248 29.6596C144.314 29.5367 144.399 29.3429 144.502 29.0782C144.615 28.804 144.732 28.5015 144.855 28.1707C144.986 27.8398 145.109 27.5137 145.221 27.1923C145.334 26.8708 145.424 26.6014 145.489 26.384C145.565 26.1571 145.602 26.0201 145.602 25.9728C145.602 25.8972 145.621 25.8404 145.659 25.8026C145.696 25.7648 145.753 25.7459 145.828 25.7459C145.856 25.7175 145.889 25.6986 145.927 25.6892C145.974 25.6797 146.016 25.675 146.054 25.675C146.054 25.675 146.073 25.6939 146.11 25.7317C146.148 25.7695 146.204 25.8263 146.279 25.9019C146.355 25.9681 146.397 26.0437 146.406 26.1288C146.425 26.2138 146.435 26.3131 146.435 26.4265C146.435 26.5494 146.42 26.6581 146.392 26.7527C146.364 26.8472 146.308 26.9843 146.223 27.1639C146.138 27.3435 146.007 27.6224 145.828 28.0005C145.753 28.1896 145.673 28.3692 145.588 28.5393C145.504 28.7001 145.461 28.7993 145.461 28.8371C145.461 28.8749 145.442 28.9317 145.405 29.0073C145.377 29.0829 145.344 29.1774 145.306 29.2909C145.268 29.3665 145.217 29.4799 145.151 29.6312C145.085 29.773 145.015 29.929 144.939 30.0991C144.874 30.2598 144.817 30.4016 144.77 30.5245C144.723 30.638 144.7 30.7041 144.7 30.7231C144.7 30.7609 144.695 30.7987 144.685 30.8365C144.685 30.8743 144.667 30.9121 144.629 30.9499C144.591 30.9499 144.568 30.9783 144.558 31.035C144.558 31.0823 144.558 31.1059 144.558 31.1059C144.558 31.2004 144.483 31.451 144.333 31.8574C144.182 32.3774 144.041 32.8548 143.91 33.2896C143.787 33.7245 143.726 34.0742 143.726 34.3389C143.726 34.5658 143.722 34.7171 143.712 34.7927C143.703 34.8589 143.66 34.9108 143.585 34.9487Z" fill="#424242"/>
<path d="M152.572 34.8069C152.535 34.8069 152.478 34.8021 152.403 34.7927C152.337 34.7738 152.281 34.7312 152.234 34.6651C152.093 34.4949 152.003 34.3531 151.966 34.2397C151.928 34.1262 151.924 33.9608 151.952 33.7434C151.971 33.6016 151.98 33.4787 151.98 33.3747C151.989 33.2613 151.999 33.1667 152.008 33.0911C151.971 33.0533 151.9 33.0816 151.797 33.1762C151.703 33.2612 151.571 33.37 151.402 33.5023C151.082 33.871 150.795 34.1546 150.541 34.3531C150.297 34.5422 150.076 34.6698 149.878 34.736C149.681 34.7927 149.493 34.8116 149.314 34.7927C149.154 34.7738 149.027 34.7076 148.933 34.5942C148.839 34.4713 148.778 34.3153 148.75 34.1262C148.731 33.9372 148.731 33.7339 148.75 33.5165C148.787 33.2045 148.853 32.9068 148.947 32.6232C149.051 32.3396 149.215 32.0229 149.441 31.6731C149.544 31.484 149.681 31.2997 149.85 31.1201C150.029 30.931 150.221 30.7656 150.428 30.6238C150.645 30.4725 150.852 30.3638 151.049 30.2977C151.265 30.2126 151.486 30.1653 151.712 30.1559C151.938 30.1369 152.14 30.1559 152.319 30.2126C152.431 30.2693 152.521 30.2977 152.587 30.2977C152.662 30.2977 152.718 30.2504 152.756 30.1559C152.803 30.0802 152.85 29.9668 152.897 29.8155C152.944 29.6548 153 29.5178 153.066 29.4043L153.376 28.4826C153.48 28.2274 153.593 27.958 153.715 27.6744C153.837 27.3908 153.983 27.0457 154.152 26.6392C154.312 26.3367 154.444 26.1619 154.547 26.1146C154.651 26.0579 154.768 26.0957 154.9 26.228C155.003 26.3509 155.041 26.4927 155.013 26.6534C154.984 26.8047 154.9 27.0505 154.759 27.3908C154.693 27.4948 154.637 27.594 154.59 27.6886C154.543 27.7736 154.477 27.9107 154.392 28.0998C154.27 28.3928 154.157 28.6575 154.054 28.8938C153.95 29.1207 153.842 29.3807 153.729 29.6737C153.691 29.825 153.64 29.9999 153.574 30.1984C153.517 30.3969 153.47 30.5765 153.433 30.7372C153.405 30.8885 153.372 31.0303 153.334 31.1626C153.306 31.2855 153.273 31.347 153.235 31.347C153.16 31.432 153.09 31.5833 153.024 31.8007C152.958 32.0087 152.902 32.2261 152.855 32.453C152.817 32.6799 152.784 32.8689 152.756 33.0202C152.737 33.1336 152.723 33.2802 152.713 33.4598C152.704 33.6394 152.699 33.8143 152.699 33.9844C152.699 34.1451 152.699 34.2586 152.699 34.3247C152.699 34.5327 152.695 34.6651 152.685 34.7218C152.676 34.7785 152.638 34.8069 152.572 34.8069ZM149.568 33.9135C149.765 33.9135 149.972 33.8284 150.189 33.6583C150.414 33.4881 150.64 33.2991 150.866 33.0911C151.007 32.9587 151.157 32.7839 151.317 32.5664C151.486 32.349 151.646 32.1316 151.797 31.9142C151.956 31.6967 152.083 31.5077 152.177 31.347C152.271 31.1768 152.319 31.0728 152.319 31.035C152.319 30.9877 152.276 30.9547 152.192 30.9357C152.107 30.9168 152.008 30.9074 151.895 30.9074C151.792 30.8979 151.707 30.9027 151.641 30.9216C151.435 30.9688 151.228 31.0634 151.021 31.2052C150.823 31.347 150.607 31.5597 150.372 31.8433C150.127 32.1458 149.925 32.4577 149.765 32.7791C149.615 33.1005 149.521 33.37 149.483 33.5874C149.446 33.8048 149.474 33.9135 149.568 33.9135Z" fill="#424242"/>
<path d="M155.373 34.4807C155.261 34.4996 155.138 34.4807 155.007 34.424C154.875 34.3673 154.758 34.2869 154.654 34.1829C154.56 34.079 154.499 33.9702 154.471 33.8568C154.433 33.6583 154.457 33.4125 154.541 33.1195C154.635 32.8169 154.767 32.5003 154.936 32.1694C155.115 31.8291 155.312 31.5029 155.529 31.191C155.754 30.879 155.985 30.6096 156.22 30.3827C156.464 30.1464 156.69 29.9857 156.897 29.9006C157 29.8344 157.08 29.7919 157.137 29.773C157.203 29.7446 157.268 29.7399 157.334 29.7588C157.409 29.7777 157.518 29.825 157.659 29.9006C157.79 29.9384 157.889 29.981 157.955 30.0282C158.021 30.0755 158.105 30.17 158.209 30.3118C158.284 30.4536 158.34 30.5954 158.378 30.7372C158.416 30.879 158.449 31.0397 158.477 31.2193C158.552 31.4557 158.58 31.6117 158.561 31.6873C158.543 31.7535 158.514 31.8054 158.477 31.8433C158.402 31.9378 158.383 31.9851 158.42 31.9851C158.42 31.9851 158.416 32.004 158.406 32.0418C158.406 32.0701 158.387 32.1174 158.35 32.1836C158.284 32.3915 158.232 32.609 158.195 32.8359C158.166 33.0533 158.171 33.2329 158.209 33.3747C158.284 33.5827 158.42 33.7056 158.618 33.7434C158.815 33.7812 159.017 33.6961 159.224 33.4881C159.328 33.4125 159.427 33.3463 159.521 33.2896C159.615 33.2234 159.662 33.2282 159.662 33.3038C159.662 33.3038 159.676 33.318 159.704 33.3463C159.732 33.3652 159.765 33.3747 159.803 33.3747C159.85 33.3747 159.878 33.3936 159.887 33.4314C159.906 33.4692 159.906 33.5212 159.887 33.5874C159.878 33.6441 159.85 33.7103 159.803 33.7859C159.662 33.9277 159.591 34.0222 159.591 34.0695C159.591 34.0695 159.572 34.0884 159.535 34.1262C159.506 34.1546 159.455 34.2018 159.38 34.268C159.21 34.372 158.994 34.424 158.731 34.424C158.477 34.424 158.279 34.372 158.138 34.268C157.997 34.164 157.866 34.0222 157.743 33.8426C157.63 33.663 157.555 33.507 157.518 33.3747L157.447 33.2329L157.038 33.5023C156.935 33.6063 156.822 33.7056 156.699 33.8001C156.587 33.8946 156.511 33.9608 156.474 33.9986C156.446 34.0364 156.413 34.0695 156.375 34.0979C156.347 34.1262 156.314 34.1404 156.276 34.1404C156.239 34.1404 156.206 34.1404 156.178 34.1404C156.149 34.1404 156.135 34.1404 156.135 34.1404C156.135 34.1782 156.088 34.2255 155.994 34.2822C155.91 34.3389 155.806 34.3862 155.684 34.424C155.571 34.4618 155.468 34.4807 155.373 34.4807ZM155.232 33.715C155.289 33.715 155.388 33.6725 155.529 33.5874C155.679 33.4929 155.844 33.3841 156.022 33.2612C156.21 33.1384 156.375 33.0155 156.516 32.8926C156.667 32.7697 156.77 32.6751 156.826 32.609C156.864 32.5712 156.925 32.5097 157.01 32.4246C157.094 32.3301 157.17 32.2498 157.235 32.1836C157.452 31.9378 157.602 31.6684 157.687 31.3753C157.771 31.0728 157.762 30.8365 157.659 30.6663C157.621 30.5623 157.574 30.5056 157.518 30.4962C157.461 30.4867 157.344 30.5198 157.165 30.5954C157.052 30.6616 156.911 30.7892 156.742 30.9783C156.582 31.1579 156.408 31.3706 156.22 31.6164C156.041 31.8527 155.872 32.0985 155.712 32.3537C155.552 32.609 155.421 32.8453 155.317 33.0627C155.214 33.2802 155.162 33.4503 155.162 33.5732C155.162 33.611 155.171 33.6441 155.19 33.6725C155.218 33.7008 155.232 33.715 155.232 33.715Z" fill="#424242"/>
<path d="M161.272 38.21C161.262 38.2289 161.22 38.21 161.145 38.1533C161.079 38.0966 161.013 38.0257 160.947 37.9406C160.882 37.865 160.853 37.7988 160.863 37.7421C160.825 37.6098 160.83 37.4443 160.877 37.2458C160.933 37.0567 161.051 36.7731 161.23 36.395C161.324 36.2438 161.408 36.0641 161.483 35.8562C161.568 35.6482 161.662 35.4402 161.766 35.2323C161.813 35.1472 161.916 34.9628 162.076 34.6792C162.236 34.3956 162.405 34.0742 162.584 33.715C162.772 33.3558 162.927 33.0155 163.049 32.6941C162.805 32.9493 162.579 33.2093 162.372 33.4739C162.165 33.7292 161.972 33.9372 161.794 34.0979C161.625 34.2586 161.465 34.3342 161.314 34.3247C161.192 34.2964 161.06 34.2538 160.919 34.1971C160.788 34.131 160.698 34.0175 160.651 33.8568C160.614 33.6488 160.6 33.3841 160.609 33.0627C160.628 32.7413 160.689 32.2545 160.792 31.6022C160.868 31.2808 160.91 31.035 160.919 30.8648C160.938 30.6852 160.933 30.5529 160.905 30.4678C160.877 30.3827 160.825 30.3071 160.75 30.2409C160.628 30.1275 160.562 30.0282 160.552 29.9432C160.552 29.8486 160.618 29.7683 160.75 29.7021C160.947 29.6548 161.089 29.6407 161.173 29.6596C161.258 29.669 161.361 29.7446 161.483 29.8864C161.559 30.0093 161.625 30.1275 161.681 30.2409C161.747 30.3449 161.78 30.5293 161.78 30.7939C161.78 30.9074 161.761 31.0586 161.723 31.2477C161.695 31.4368 161.667 31.6164 161.639 31.7865C161.62 31.9472 161.606 32.0607 161.596 32.1269C161.502 32.4766 161.441 32.7791 161.413 33.0344C161.394 33.2896 161.408 33.4172 161.455 33.4172C161.643 33.266 161.822 33.0958 161.991 32.9068C162.17 32.7082 162.353 32.4861 162.541 32.2403C162.739 31.9851 162.955 31.6967 163.19 31.3753C163.275 31.2146 163.36 31.0586 163.444 30.9074C163.529 30.7561 163.599 30.6002 163.656 30.4395C163.712 30.3166 163.769 30.2173 163.825 30.1417C163.881 30.066 163.928 30.0235 163.966 30.0141C164.013 29.9951 164.07 29.9999 164.135 30.0282C164.211 30.0566 164.276 30.0897 164.333 30.1275C164.399 30.1559 164.432 30.1795 164.432 30.1984C164.441 30.2078 164.464 30.2173 164.502 30.2268C164.54 30.2362 164.577 30.2457 164.615 30.2551C164.662 30.2551 164.685 30.2693 164.685 30.2977C164.685 30.3166 164.662 30.378 164.615 30.482C164.577 30.586 164.53 30.7041 164.474 30.8365C164.427 30.9594 164.385 31.0728 164.347 31.1768C164.309 31.2713 164.295 31.3281 164.305 31.347C164.323 31.3659 164.309 31.4368 164.262 31.5597C164.215 31.6731 164.159 31.8007 164.093 31.9425C164.037 32.0843 163.985 32.2119 163.938 32.3254C163.844 32.6373 163.736 32.9493 163.613 33.2612C163.491 33.5638 163.345 33.8663 163.176 34.1688C163.12 34.2822 163.035 34.4571 162.922 34.6934C162.819 34.9298 162.715 35.1614 162.612 35.3882C162.518 35.6246 162.443 35.8042 162.386 35.9271C162.349 36.0027 162.292 36.1209 162.217 36.2816C162.151 36.4517 162.076 36.6361 161.991 36.8346C161.916 37.0331 161.841 37.2174 161.766 37.3876C161.69 37.5672 161.634 37.7043 161.596 37.7988C161.578 37.9784 161.535 38.1108 161.469 38.1959C161.432 38.1959 161.389 38.1959 161.342 38.1959C161.295 38.2053 161.272 38.21 161.272 38.21Z" fill="#424242"/>
<path d="M166.46 32.5381C166.197 32.5853 166.023 32.4577 165.938 32.1552C165.854 31.8527 165.877 31.4368 166.009 30.9074C166.065 30.7939 166.112 30.6852 166.15 30.5812C166.188 30.4678 166.206 30.378 166.206 30.3118C166.244 30.1889 166.291 30.0471 166.347 29.8864C166.413 29.7163 166.479 29.5603 166.545 29.4185C166.611 29.2672 166.658 29.168 166.686 29.1207C166.724 29.1207 166.761 29.0876 166.799 29.0215C166.846 28.9553 166.869 28.8891 166.869 28.8229C166.869 28.7473 166.883 28.6622 166.912 28.5677C166.949 28.4732 166.987 28.407 167.024 28.3692C167.024 28.3219 167.043 28.2699 167.081 28.2132C167.119 28.1565 167.137 28.1092 167.137 28.0714C167.137 28.0336 167.147 28.0005 167.166 27.9721C167.194 27.9438 167.208 27.9107 167.208 27.8729C167.292 27.7216 167.401 27.4995 167.532 27.2064C167.673 26.9039 167.81 26.5872 167.941 26.2564C168.082 25.9255 168.2 25.6325 168.294 25.3772C168.388 25.122 168.435 24.966 168.435 24.9093C168.454 24.8337 168.482 24.7769 168.52 24.7391C168.557 24.7013 168.614 24.6919 168.689 24.7108C168.727 24.6824 168.764 24.6682 168.802 24.6682C168.839 24.6588 168.877 24.6541 168.915 24.6541C168.915 24.6541 168.929 24.673 168.957 24.7108C168.995 24.7486 169.046 24.8053 169.112 24.8809C169.187 24.9471 169.23 25.0227 169.239 25.1078C169.248 25.1929 169.253 25.2922 169.253 25.4056C169.244 25.5852 169.178 25.7884 169.056 26.0153C168.933 26.2422 168.797 26.4927 168.647 26.7669C168.553 26.9465 168.459 27.1166 168.365 27.2773C168.28 27.438 168.238 27.5373 168.238 27.5751C168.238 27.6129 168.219 27.6696 168.181 27.7453C168.144 27.8209 168.101 27.9154 168.054 28.0289C167.998 28.1234 167.937 28.2368 167.871 28.3692C167.805 28.5015 167.744 28.6244 167.687 28.7379C167.64 28.8419 167.617 28.908 167.617 28.9364C167.608 28.9742 167.593 29.012 167.575 29.0498C167.565 29.0876 167.542 29.1254 167.504 29.1633C167.466 29.1633 167.443 29.1916 167.434 29.2483C167.434 29.2956 167.434 29.3192 167.434 29.3192C167.434 29.3571 167.41 29.4469 167.363 29.5887C167.325 29.721 167.26 29.8817 167.166 30.0708C166.987 30.5718 166.86 30.9736 166.785 31.2761C166.709 31.5691 166.662 31.8196 166.644 32.0276C166.625 32.2545 166.606 32.3868 166.587 32.4246C166.578 32.4625 166.535 32.5003 166.46 32.5381ZM165.699 34.8069C165.52 34.873 165.369 34.9061 165.247 34.9061C165.134 34.8967 165.007 34.8399 164.866 34.736C164.688 34.5658 164.627 34.3956 164.683 34.2255C164.749 34.0459 164.904 33.871 165.148 33.7008C165.318 33.5968 165.44 33.5401 165.515 33.5307C165.6 33.5212 165.727 33.5543 165.896 33.6299C166.178 33.8095 166.3 34.0081 166.263 34.2255C166.235 34.4429 166.046 34.6367 165.699 34.8069Z" fill="#424242"/>
<path d="M35.7142 34.568C35.4831 34.3357 35.3098 34.0453 35.1943 33.6969C35.1077 33.3485 35.0788 33.0001 35.1077 32.6517C35.1365 32.3032 35.2088 32.0129 35.3243 31.7806C35.3243 31.5483 35.3532 31.3741 35.4109 31.258C35.4976 31.1128 35.5265 30.9821 35.4976 30.866C35.4687 30.7499 35.4976 30.5466 35.5842 30.2563C35.6709 29.9659 35.7575 29.6901 35.8442 29.4288C36.0464 28.9642 36.263 28.4125 36.4941 27.7738C36.7251 27.106 36.9417 26.4527 37.1439 25.8139C37.3461 25.1751 37.5194 24.6235 37.6638 24.1589C37.8082 23.6943 37.8949 23.404 37.9238 23.2879C37.9238 22.9394 38.1548 22.7507 38.617 22.7217C38.9636 22.6055 39.2235 22.6055 39.3968 22.7217C39.5701 22.8088 39.8012 23.0846 40.09 23.5492C40.3211 23.7815 40.4077 24.1299 40.3499 24.5944C40.2922 25.059 40.1044 25.6397 39.7867 26.3365C39.6712 26.5688 39.5268 26.9027 39.3535 27.3382C39.2091 27.7738 39.108 28.1657 39.0502 28.5142C38.9347 28.7464 38.7903 29.0803 38.617 29.5159C38.4725 29.9224 38.3426 30.3143 38.227 30.6918C38.1693 30.837 38.1115 31.0547 38.0537 31.3451C37.996 31.6064 37.9238 31.8967 37.8371 32.2161C37.7505 32.5065 37.6349 32.7678 37.4905 33.0001C37.2306 34.1905 36.9851 34.8873 36.754 35.0906C36.5518 35.2938 36.2052 35.1196 35.7142 34.568ZM39.9167 16.8856C39.7723 16.7405 39.6423 16.5372 39.5268 16.2759C39.4112 15.9856 39.339 15.7242 39.3102 15.492C39.2813 15.2306 39.3102 15.1 39.3968 15.1C39.6279 15.071 39.9023 14.8242 40.22 14.3596C40.5377 13.895 40.6677 13.4885 40.6099 13.1401C40.6099 13.024 40.6532 12.9224 40.7399 12.8353C40.8265 12.7191 40.9276 12.6465 41.0431 12.6175C41.3897 12.3852 41.7219 12.3562 42.0396 12.5304C42.3862 12.6756 42.7039 12.9804 42.9928 13.445C43.2527 13.9967 43.3249 14.4612 43.2094 14.8387C43.0938 15.1871 42.7761 15.6807 42.2562 16.3195C41.823 16.9002 41.4186 17.2195 41.0431 17.2776C40.6965 17.3357 40.3211 17.205 39.9167 16.8856Z" fill="#F3E04B"/>
<path d="M46.7414 35.6568C46.4236 35.5987 46.0915 35.439 45.7449 35.1777C45.4272 34.8873 45.1383 34.568 44.8784 34.2195C44.6473 33.8421 44.4885 33.5082 44.4018 33.2178C44.4018 33.1598 44.3585 33.0872 44.2718 33.0001C44.2141 32.913 44.1852 32.8694 44.1852 32.8694C44.0697 32.7823 43.9975 32.4049 43.9686 31.737C43.9686 31.0402 44.0119 30.2708 44.0985 29.4288C44.1852 28.5868 44.2863 27.9189 44.4018 27.4253C44.5462 26.9608 44.7629 26.3365 45.0517 25.5526C45.3405 24.7396 45.586 24.0137 45.7882 23.375L46.958 20.8489L45.225 20.3698C45.0228 20.3118 44.8495 20.1956 44.7051 20.0214C44.5896 19.8472 44.5318 19.702 44.5318 19.5859C44.5318 19.3536 44.6618 19.0778 44.9217 18.7584C45.1817 18.41 45.3694 18.2358 45.4849 18.2358C45.6294 18.2648 45.8893 18.2793 46.2648 18.2793C46.6691 18.2793 47.0591 18.2648 47.4345 18.2358C47.81 18.2067 48.0411 18.1777 48.1277 18.1487C48.2433 18.0906 48.3588 18.018 48.4743 17.9309C48.5899 17.8148 48.6765 17.6551 48.7343 17.4518C48.8787 17.1324 49.0087 16.8421 49.1242 16.5808C49.2397 16.2904 49.3986 15.971 49.6008 15.6226C49.803 15.2452 49.9618 14.9258 50.0774 14.6645C50.2218 14.4031 50.4384 14.0402 50.7272 13.5756C50.8716 13.3724 51.0305 13.1256 51.2038 12.8353C51.3771 12.5449 51.5937 12.2981 51.8537 12.0949C52.1136 11.8626 52.3736 11.761 52.6335 11.79C52.9223 11.79 53.2834 11.9787 53.7166 12.3562C53.9477 12.6465 54.0777 12.8643 54.1065 13.0095C54.1354 13.1546 54.0199 13.4305 53.76 13.837C53.5289 14.3306 53.2545 14.8242 52.9368 15.3177C52.648 15.8113 52.3736 16.3049 52.1136 16.7985C51.6515 17.4373 51.5648 17.8002 51.8537 17.8873C52.1425 17.9745 52.9512 17.9164 54.2798 17.7131C55.1175 17.568 55.724 17.6115 56.0995 17.8438C56.475 18.047 56.6916 18.3955 56.7494 18.8891C56.836 19.5859 56.7638 20.0069 56.5327 20.1521C56.3017 20.2973 55.6374 20.3698 54.5398 20.3698C53.8466 20.486 53.2545 20.5586 52.7635 20.5876C52.2725 20.5876 51.9114 20.5876 51.6804 20.5876C51.3049 20.6166 51.0594 20.6312 50.9438 20.6312C50.8283 20.6312 50.655 20.6602 50.424 20.7183C50.1929 20.7763 50.0196 20.878 49.9041 21.0231C49.8174 21.1393 49.7163 21.3135 49.6008 21.5458C49.4853 21.6619 49.312 21.9668 49.0809 22.4604C48.8498 22.954 48.561 23.4911 48.2144 24.0718C47.81 25.2913 47.4634 26.5107 47.1746 27.7302C46.8858 28.9207 46.6547 30.0821 46.4814 31.2144C46.3659 31.9403 46.3803 32.4484 46.5247 32.7388C46.6691 33.0001 47.0446 33.1598 47.6512 33.2178C47.9689 33.2469 48.4743 33.2469 49.1675 33.2178C49.8896 33.1598 50.4528 33.0727 50.8572 32.9565C51.1749 32.8113 51.5071 32.6662 51.8537 32.521C52.2003 32.3468 52.518 32.1726 52.8068 31.9984C53.0668 31.8532 53.3267 31.708 53.5867 31.5628C53.8466 31.3886 53.9766 31.3015 53.9766 31.3015C54.121 31.0692 54.2798 30.9967 54.4531 31.0838C54.6264 31.1709 54.7709 31.3886 54.8864 31.737C54.8864 32.0855 54.8142 32.4484 54.6698 32.8259C54.5254 33.2033 53.991 33.6534 53.0668 34.176C51.767 34.989 50.5684 35.4826 49.4708 35.6568C48.4021 35.802 47.4923 35.802 46.7414 35.6568Z" fill="#F3E04B"/>
<path d="M62.2106 34.3066C61.6041 34.4228 61.2142 34.4663 61.0409 34.4373C60.8965 34.3792 60.6654 34.205 60.3477 33.9147C59.8855 33.6824 59.4956 33.392 59.1779 33.0436C58.8891 32.6952 58.6725 32.3323 58.528 31.9548C58.4125 31.5483 58.3692 31.2144 58.3981 30.9531C58.4847 29.9369 58.7302 28.8481 59.1346 27.6867C59.5389 26.5253 60.03 25.4074 60.6076 24.3331C61.1853 23.2588 61.8063 22.3442 62.4706 21.5893C63.1638 20.8054 63.8281 20.2973 64.4635 20.065C65.0412 19.8327 65.59 19.7456 66.1099 19.8037C66.6297 19.8617 67.0052 20.1376 67.2363 20.6312C67.6695 21.4732 67.5685 22.0103 66.933 22.2426C66.8464 22.2426 66.7453 22.2862 66.6298 22.3733C66.5142 22.4313 66.4565 22.5184 66.4565 22.6346C66.572 22.6926 66.8897 22.7072 67.4096 22.6781C67.9295 22.6201 68.4494 22.5329 68.9693 22.4168C69.5181 22.2716 69.8791 22.1265 70.0524 21.9813C70.2257 21.8942 70.3557 21.8506 70.4423 21.8506C70.529 21.8506 70.7456 21.8797 71.0922 21.9377C71.5832 22.0829 71.8287 22.2571 71.8287 22.4604C71.8287 22.5765 71.872 22.6926 71.9587 22.8088C72.0453 22.8959 72.1464 22.9394 72.262 22.9394C72.4641 22.9685 72.4353 23.0991 72.1753 23.3314C71.9442 23.5637 71.5399 23.8831 70.9622 24.2896C70.4134 24.638 70.0668 24.8703 69.9224 24.9864C69.8069 25.0735 69.7925 25.2768 69.8791 25.5961C70.1102 26.1478 70.1246 26.7866 69.9224 27.5125C69.7202 28.2383 69.3592 28.9787 68.8393 29.7336C68.3194 30.4885 67.684 31.1999 66.933 31.8677C66.2109 32.5065 65.4311 33.0581 64.5935 33.5227C63.7848 33.9582 62.9905 34.2195 62.2106 34.3066ZM61.4741 32.3903C61.5896 32.3903 61.7918 32.3323 62.0807 32.2161C62.3695 32.071 62.6006 31.9548 62.7739 31.8677C62.8894 31.7516 63.0338 31.6209 63.2071 31.4757C63.4093 31.3015 63.5681 31.1999 63.6837 31.1709C63.7992 31.1709 63.9436 31.1273 64.1169 31.0402C64.2902 30.9241 64.5357 30.7063 64.8534 30.3869C65.1712 30.0385 65.59 29.5304 66.1099 28.8626C66.6875 28.2238 67.1352 27.6431 67.4529 27.1205C67.7706 26.5688 67.8573 26.0607 67.7129 25.5961C67.684 25.48 67.5973 25.4074 67.4529 25.3784C67.3374 25.3493 67.1785 25.2768 66.9763 25.1606C66.6875 25.1606 66.4131 25.088 66.1532 24.9429C65.9221 24.7686 65.6477 24.5509 65.33 24.2896L64.6368 23.4185L63.9003 24.1589C63.4382 24.6235 62.9472 25.3203 62.4273 26.2494C61.9362 27.1495 61.5174 28.0786 61.1708 29.0368C60.8242 29.9659 60.6221 30.7063 60.5643 31.258C60.5354 31.6935 60.6076 31.9838 60.7809 32.129C60.9542 32.2742 61.1853 32.3613 61.4741 32.3903Z" fill="#F3E04B"/>
</svg>
